<svg version="1.1" viewBox="0.0 0.0 686.3937007874016 233.41469816272965" fill="none" stroke="none" stroke-linecap="square" stroke-miterlimit="10" xmlns:xlink="http://www.w3.org/1999/xlink" xmlns="http://www.w3.org/2000/svg"><clipPath id="p.0"><path d="m0 0l686.3937 0l0 233.4147l-686.3937 0l0 -233.4147z" clip-rule="nonzero"/></clipPath><g clip-path="url(#p.0)"><path fill="#000000" fill-opacity="0.0" d="m0 0l686.3937 0l0 233.4147l-686.3937 0z" fill-rule="evenodd"/><path stroke="#9e9e9e" stroke-width="1.0" stroke-linecap="butt" d="m241.72441 67.45932l0 68.19423" fill-rule="nonzero"/><path stroke="#9e9e9e" stroke-width="1.0" stroke-linecap="butt" d="m377.8399 67.45932l0 68.19423" fill-rule="nonzero"/><path stroke="#9e9e9e" stroke-width="1.0" stroke-linecap="butt" d="m513.9554 67.45932l0 68.19423" fill-rule="nonzero"/><path stroke="#9e9e9e" stroke-width="1.0" stroke-linecap="butt" d="m650.07086 67.45932l0 68.19423" fill-rule="nonzero"/><path stroke="#9e9e9e" stroke-width="1.0" stroke-linecap="butt" d="m241.22572 67.95801l409.34387 0" fill-rule="nonzero"/><path stroke="#9e9e9e" stroke-width="1.0" stroke-linecap="butt" d="m241.22572 135.15486l409.34387 0" fill-rule="nonzero"/><path fill="#000000" d="m296.88568 115.358l-3.515625 0l0 -22.40625q-1.265625 1.21875 -3.328125 2.4375q-2.0625 1.203125 -3.703125 1.796875l0 -3.390625q2.953125 -1.390625 5.15625 -3.359375q2.203125 -1.96875 3.125 -3.828125l2.265625 0l0 28.75zm10.980438 0l0 -4.0l4.0 0l0 4.0l-4.0 0zm27.613281 -3.375l0 3.375l-18.921875 0q-0.046875 -1.265625 0.40625 -2.4375q0.71875 -1.9375 2.3125 -3.8125q1.59375 -1.875 4.59375 -4.34375q4.671875 -3.828125 6.3125 -6.0625q1.640625 -2.234375 1.640625 -4.21875q0 -2.09375 -1.5 -3.53125q-1.484375 -1.4375 -3.890625 -1.4375q-2.53125 0 -4.0625 1.53125q-1.515625 1.515625 -1.546875 4.21875l-3.609375 -0.375q0.375 -4.046875 2.796875 -6.15625q2.421875 -2.125 6.5 -2.125q4.125 0 6.515625 2.28125q2.40625 2.28125 2.40625 5.671875q0 1.71875 -0.703125 3.375q-0.703125 1.65625 -2.328125 3.5q-1.625 1.828125 -5.421875 5.03125q-3.15625 2.65625 -4.0625 3.609375q-0.890625 0.9375 -1.484375 1.90625l14.046875 0z" fill-rule="nonzero"/><path fill="#000000" d="m438.23553 111.983l0 3.375l-18.921875 0q-0.046875 -1.265625 0.40625 -2.4375q0.71875 -1.9375 2.3125 -3.8125q1.59375 -1.875 4.59375 -4.34375q4.671875 -3.828125 6.3125 -6.0625q1.640625 -2.234375 1.640625 -4.21875q0 -2.09375 -1.5 -3.53125q-1.484375 -1.4375 -3.890625 -1.4375q-2.53125 0 -4.0625 1.53125q-1.515625 1.515625 -1.546875 4.21875l-3.609375 -0.375q0.375 -4.046875 2.796875 -6.15625q2.421875 -2.125 6.5 -2.125q4.125 0 6.515625 2.28125q2.40625 2.28125 2.40625 5.671875q0 1.71875 -0.703125 3.375q-0.703125 1.65625 -2.328125 3.5q-1.625 1.828125 -5.421875 5.03125q-3.15625 2.65625 -4.0625 3.609375q-0.890625 0.9375 -1.484375 1.90625l14.046875 0zm5.7460938 3.375l0 -4.0l4.0 0l0 4.0l-4.0 0zm14.550781 -15.53125q-2.1875 -0.796875 -3.25 -2.28125q-1.046875 -1.484375 -1.046875 -3.5625q0 -3.125 2.234375 -5.25q2.25 -2.125 5.984375 -2.125q3.75 0 6.03125 2.1875q2.28125 2.171875 2.28125 5.296875q0 1.984375 -1.046875 3.46875q-1.03125 1.46875 -3.171875 2.265625q2.640625 0.859375 4.015625 2.78125q1.375 1.90625 1.375 4.5625q0 3.671875 -2.59375 6.171875q-2.59375 2.5 -6.828125 2.5q-4.25 0 -6.84375 -2.5q-2.59375 -2.515625 -2.59375 -6.265625q0 -2.796875 1.40625 -4.671875q1.421875 -1.890625 4.046875 -2.578125zm-0.703125 -5.953125q0 2.03125 1.296875 3.328125q1.3125 1.28125 3.40625 1.28125q2.03125 0 3.328125 -1.28125q1.296875 -1.28125 1.296875 -3.140625q0 -1.921875 -1.34375 -3.234375q-1.328125 -1.328125 -3.328125 -1.328125q-2.0 0 -3.328125 1.296875q-1.328125 1.28125 -1.328125 3.078125zm-1.140625 13.21875q0 1.5 0.703125 2.90625q0.71875 1.40625 2.125 2.1875q1.40625 0.765625 3.03125 0.765625q2.515625 0 4.15625 -1.609375q1.640625 -1.625 1.640625 -4.125q0 -2.546875 -1.6875 -4.203125q-1.6875 -1.65625 -4.21875 -1.65625q-2.484375 0 -4.125 1.640625q-1.625 1.640625 -1.625 4.09375z" fill-rule="nonzero"/><path fill="#000000" d="m569.11664 115.358l-3.515625 0l0 -22.40625q-1.265625 1.21875 -3.328125 2.4375q-2.0625 1.203125 -3.703125 1.796875l0 -3.390625q2.953125 -1.390625 5.15625 -3.359375q2.203125 -1.96875 3.125 -3.828125l2.265625 0l0 28.75zm10.980469 0l0 -4.0l4.0 0l0 4.0l-4.0 0zm27.613281 -3.375l0 3.375l-18.921875 0q-0.046875 -1.265625 0.40625 -2.4375q0.71875 -1.9375 2.3125 -3.8125q1.59375 -1.875 4.59375 -4.34375q4.671875 -3.828125 6.3125 -6.0625q1.640625 -2.234375 1.640625 -4.21875q0 -2.09375 -1.5 -3.53125q-1.484375 -1.4375 -3.890625 -1.4375q-2.53125 0 -4.0625 1.53125q-1.515625 1.515625 -1.546875 4.21875l-3.609375 -0.375q0.375 -4.046875 2.796875 -6.15625q2.421875 -2.125 6.5 -2.125q4.125 0 6.515625 2.28125q2.40625 2.28125 2.40625 5.671875q0 1.71875 -0.703125 3.375q-0.703125 1.65625 -2.328125 3.5q-1.625 1.828125 -5.421875 5.03125q-3.15625 2.65625 -4.0625 3.609375q-0.890625 0.9375 -1.484375 1.90625l14.046875 0z" fill-rule="nonzero"/><path fill="#000000" fill-opacity="0.0" d="m50.56168 26.317585l168.59843 0l0 108.8504l-168.59843 0z" fill-rule="evenodd"/><path stroke="#000000" stroke-width="1.0" stroke-linejoin="round" stroke-linecap="butt" d="m50.56168 26.317585l168.59843 0l0 108.8504l-168.59843 0z" fill-rule="evenodd"/><path fill="#000000" fill-opacity="0.0" d="m98.86098 37.741646l11.9999695 0l0 25.175926l-11.9999695 0l0 -25.175926z" fill-rule="nonzero"/><path fill="#000000" d="m104.72035 47.15446q2.34375 0 3.578125 1.21875q1.25 1.21875 1.25 4.15625l0 5.828125l-1.875 0l0 -1.6875q-1.015625 1.953125 -3.75 1.953125q-1.828125 0 -2.859375 -0.828125q-1.03125 -0.828125 -1.03125 -2.203125q0 -1.140625 0.734375 -2.0q0.75 -0.875 2.015625 -1.34375q1.265625 -0.46875 2.78125 -0.46875q1.359375 0 2.46875 0.140625q-0.140625 -1.84375 -0.96875 -2.59375q-0.828125 -0.765625 -2.46875 -0.765625q-0.8125 0 -1.578125 0.3125q-0.75 0.3125 -1.375 0.921875l-0.84375 -1.109375q1.546875 -1.53125 3.921875 -1.53125zm-0.625 10.140625q1.78125 0 2.8125 -1.03125q1.03125 -1.046875 1.125 -3.015625q-1.078125 -0.171875 -2.328125 -0.171875q-1.828125 0 -2.890625 0.609375q-1.046875 0.59375 -1.046875 1.8125q0 1.796875 2.328125 1.796875z" fill-rule="nonzero"/><path fill="#010000" fill-opacity="0.0" d="m110.86095 37.741646l59.999847 0l0 25.175926l-59.999847 0l0 -25.175926z" fill-rule="nonzero"/><path fill="#000000" d="m121.0797 49.670086l0 0.03125q-0.6875 -0.65625 -1.15625 -0.875q-0.46875 -0.21875 -1.09375 -0.21875q-0.859375 0 -1.640625 0.4375q-0.765625 0.4375 -1.25 1.3125q-0.46875 0.875 -0.46875 2.1875l0 5.84375l-1.75 0l0 -11.0l1.796875 0l-0.046875 2.015625q0.453125 -1.078125 1.390625 -1.671875q0.953125 -0.609375 2.09375 -0.609375q1.75 0 2.890625 1.203125l-0.765625 1.34375zm0 0.03125q0.171875 0.140625 0.078125 0.125q-0.078125 -0.03125 -0.125 -0.0625l0.046875 -0.0625zm-0.265625 0.0625q0 -0.0625 0.078125 -0.046875q0.078125 0 0.140625 0.046875l-0.046875 0.125l-0.171875 -0.09375l0 -0.03125zm12.2655945 -0.09375l0 0.03125q-0.6875 -0.65625 -1.15625 -0.875q-0.46875 -0.21875 -1.09375 -0.21875q-0.859375 0 -1.640625 0.4375q-0.765625 0.4375 -1.25 1.3125q-0.46875 0.875 -0.46875 2.1875l0 5.84375l-1.75 0l0 -11.0l1.796875 0l-0.046875 2.015625q0.453125 -1.078125 1.390625 -1.671875q0.953125 -0.609375 2.09375 -0.609375q1.75 0 2.890625 1.203125l-0.765625 1.34375zm0 0.03125q0.171875 0.140625 0.078125 0.125q-0.078125 -0.03125 -0.125 -0.0625l0.046875 -0.0625zm-0.265625 0.0625q0 -0.0625 0.078125 -0.046875q0.078125 0 0.140625 0.046875l-0.046875 0.125l-0.171875 -0.09375l0 -0.03125zm7.9062195 -2.609375q2.34375 0 3.578125 1.21875q1.25 1.21875 1.25 4.15625l0 5.828125l-1.875 0l0 -1.6875q-1.015625 1.953125 -3.75 1.953125q-1.828125 0 -2.859375 -0.828125q-1.03125 -0.828125 -1.03125 -2.203125q0 -1.140625 0.734375 -2.0q0.75 -0.875 2.015625 -1.34375q1.265625 -0.46875 2.78125 -0.46875q1.359375 0 2.46875 0.140625q-0.140625 -1.84375 -0.96875 -2.59375q-0.828125 -0.765625 -2.46875 -0.765625q-0.8125 0 -1.578125 0.3125q-0.75 0.3125 -1.375 0.921875l-0.84375 -1.109375q1.546875 -1.53125 3.921875 -1.53125zm-0.625 10.140625q1.78125 0 2.8125 -1.03125q1.03125 -1.046875 1.125 -3.015625q-1.078125 -0.171875 -2.328125 -0.171875q-1.828125 0 -2.890625 0.609375q-1.046875 0.59375 -1.046875 1.8125q0 1.796875 2.328125 1.796875zm17.390594 -9.90625q-0.140625 0.984375 -0.4375 1.953125q-0.296875 0.953125 -0.84375 2.53125l-2.75 7.734375q-0.546875 1.53125 -1.4375 2.21875q-0.890625 0.703125 -2.109375 0.703125q-1.53125 0 -2.515625 -0.9375l0.734375 -1.171875l0.03125 -0.015625l0.015625 0.015625q0.390625 0.359375 0.8125 0.53125q0.4375 0.171875 1.015625 0.171875q0.890625 0 1.421875 -0.625q0.53125 -0.625 1.03125 -2.0625l-4.484375 -11.046875l1.796875 0l3.40625 8.78125l1.4375 -4.40625q0.53125 -1.65625 0.78125 -2.53125q0.25 -0.890625 0.375 -1.84375l1.71875 0zm-9.0625 12.9375q0 0.046875 -0.046875 0.046875l-0.203125 -0.046875l0.109375 -0.125l0.140625 0.09375l0 0.03125zm-0.265625 0.078125q-0.125 -0.125 -0.0625 -0.109375q0.0625 0.03125 0.078125 0.03125l-0.015625 0.078125zm16.21872 -2.046875l0 -12.890625l-3.015625 0.890625l-0.390625 -0.9375l3.921875 -2.03125l1.171875 0l0 14.96875l-1.6875 0z" fill-rule="nonzero"/><path fill="#010000" fill-opacity="0.0" d="m170.8608 37.741646l0 0l0 25.175926l0 0l0 -25.175926z" fill-rule="nonzero"/><path fill="#000000" d="m98.86098 59.917587l71.99982 0l0 2.1599998l-71.99982 0l0 -2.1599998z" fill-rule="nonzero"/><path fill="#000000" d="m82.75165 87.35759l0 -1.390625l3.25 0l0 -13.171875l-3.09375 0l0 -1.390625l4.84375 0l0 14.5625l3.21875 0l0 1.390625l-8.21875 0zm16.640594 0.234375q-2.453125 0 -3.90625 -1.484375q-1.453125 -1.484375 -1.453125 -4.203125q0 -1.796875 0.671875 -3.09375q0.671875 -1.3125 1.8125 -2.0q1.140625 -0.6875 2.5625 -0.6875q1.984375 0 3.21875 1.328125q1.25 1.3125 1.25 3.875q0 0.265625 -0.0625 0.796875l-7.796875 0q0.09375 2.015625 1.125 3.046875q1.03125 1.03125 2.625 1.03125q1.71875 0 2.828125 -1.21875l0.96875 0.9375q-1.40625 1.671875 -3.84375 1.671875zm2.390625 -6.8125q0 -1.53125 -0.78125 -2.421875q-0.765625 -0.90625 -2.046875 -0.90625q-1.203125 0 -2.09375 0.84375q-0.875 0.828125 -1.09375 2.484375l6.015625 0zm4.8124695 -4.390625l1.671875 0l0 1.9375q0.65625 -1.0 1.640625 -1.59375q0.984375 -0.609375 2.078125 -0.609375q1.46875 0 2.34375 1.125q0.875 1.109375 0.875 3.46875l0 6.640625l-1.6875 0l0 -6.59375q0 -1.640625 -0.546875 -2.375q-0.546875 -0.75 -1.46875 -0.75q-0.734375 0 -1.5 0.4375q-0.75 0.421875 -1.25 1.203125q-0.484375 0.78125 -0.484375 1.765625l0 6.3125l-1.671875 0l0 -10.96875zm21.671844 1.125q-0.21875 -0.015625 -0.625 -0.015625q-1.15625 0 -1.921875 0.5q0.40625 0.8125 0.40625 1.796875q0 1.078125 -0.46875 1.953125q-0.46875 0.875 -1.34375 1.390625q-0.875 0.5 -2.03125 0.5q-0.90625 0 -1.703125 -0.34375q-0.4375 0.53125 -0.4375 1.015625q0 0.578125 0.734375 0.828125q0.734375 0.25 2.625 0.25q2.328125 0 3.1875 0.71875q0.859375 0.703125 0.859375 2.0625q0 1.421875 -1.15625 2.359375q-1.15625 0.953125 -3.609375 0.953125q-2.34375 0 -3.6875 -0.71875q-1.328125 -0.71875 -1.328125 -2.109375q0 -0.859375 0.484375 -1.484375q0.484375 -0.625 1.21875 -0.984375q-0.78125 -0.53125 -0.78125 -1.46875q0 -0.953125 0.984375 -2.015625q-0.609375 -0.53125 -0.921875 -1.265625q-0.3125 -0.75 -0.3125 -1.640625q0 -1.046875 0.46875 -1.921875q0.46875 -0.890625 1.34375 -1.390625q0.875 -0.5 2.03125 -0.5q1.75 0 2.8125 1.125q0.578125 -0.53125 1.1875 -0.78125q0.609375 -0.25 1.359375 -0.25l0.40625 0.03125l0.21875 1.40625zm-5.984375 4.6875q1.03125 0 1.71875 -0.6875q0.6875 -0.703125 0.6875 -1.71875q0 -1.0 -0.6875 -1.6875q-0.6875 -0.703125 -1.71875 -0.703125q-1.03125 0 -1.71875 0.703125q-0.671875 0.6875 -0.671875 1.6875q0 1.015625 0.671875 1.71875q0.6875 0.6875 1.71875 0.6875zm3.671875 6.234375q0 -0.578125 -0.203125 -0.90625q-0.203125 -0.3125 -0.8125 -0.46875q-0.59375 -0.15625 -1.796875 -0.15625q-1.71875 0 -2.75 -0.3125q-0.578125 0.375 -0.8125 0.78125q-0.21875 0.421875 -0.21875 1.09375q0 0.8125 0.90625 1.265625q0.90625 0.453125 2.546875 0.453125q1.578125 0 2.359375 -0.46875q0.78125 -0.46875 0.78125 -1.28125zm13.5624695 -2.09375q-1.578125 1.1875 -3.484375 1.1875q-1.8125 0 -2.578125 -1.109375q-0.75 -1.109375 -0.75 -3.59375q0 -0.40625 0.046875 -1.421875l0.21875 -3.59375l-2.421875 0l0 -1.421875l2.515625 0l0.171875 -2.921875l1.90625 -0.3125l0.25 -0.03125l0.015625 0.140625q-0.15625 0.25 -0.25 0.421875q-0.078125 0.15625 -0.109375 0.515625l-0.265625 2.1875l3.65625 0l0 1.421875l-3.75 0l-0.21875 3.71875q-0.046875 0.953125 -0.046875 1.265625q0 1.921875 0.4375 2.609375q0.453125 0.6875 1.4375 0.6875q0.71875 0 1.3125 -0.265625q0.609375 -0.265625 1.375 -0.84375l0.53125 1.359375zm3.0937195 -14.9375l1.890625 0l0 0.15625q-0.140625 0.15625 -0.171875 0.328125q-0.03125 0.15625 -0.03125 0.5625l0 5.875q0.640625 -1.0 1.609375 -1.59375q0.984375 -0.609375 1.984375 -0.609375q1.5625 0 2.453125 1.109375q0.890625 1.09375 0.890625 3.484375l0 6.640625l-1.6875 0l0 -6.59375q0 -1.640625 -0.5625 -2.375q-0.546875 -0.75 -1.453125 -0.75q-0.765625 0 -1.515625 0.421875q-0.734375 0.421875 -1.234375 1.203125q-0.484375 0.78125 -0.484375 1.78125l0 6.3125l-1.6875 0l0 -15.953125zm15.9687195 8.5625q-0.5625 0 -1.0 -0.40625q-0.421875 -0.40625 -0.421875 -0.96875q0 -0.578125 0.421875 -0.984375q0.421875 -0.40625 1.0 -0.40625q0.5625 0 1.0 0.40625q0.4375 0.40625 0.4375 0.984375q0 0.5625 -0.4375 0.96875q-0.4375 0.40625 -1.0 0.40625zm0 7.65625q-0.609375 0 -1.015625 -0.390625q-0.40625 -0.40625 -0.40625 -0.984375q0 -0.578125 0.421875 -0.984375q0.421875 -0.40625 1.0 -0.40625q0.5625 0 1.0 0.40625q0.4375 0.40625 0.4375 0.984375q0 0.5625 -0.421875 0.96875q-0.421875 0.40625 -1.015625 0.40625zm25.671814 -8.1875q1.328125 0.4375 2.09375 1.40625q0.765625 0.953125 0.765625 2.40625q0 1.203125 -0.53125 2.203125q-0.53125 1.0 -1.546875 1.59375q-1.0 0.578125 -2.40625 0.578125q-1.203125 0 -2.28125 -0.421875q-1.0625 -0.4375 -1.828125 -1.28125l1.109375 -1.328125l0.015625 -0.015625l0.03125 0.015625q0.59375 0.78125 1.234375 1.1875q0.640625 0.40625 1.640625 0.40625q1.390625 0 2.109375 -0.8125q0.71875 -0.828125 0.71875 -2.1875q0 -1.484375 -0.90625 -2.234375q-0.890625 -0.75 -2.515625 -0.75q-0.25 0 -0.78125 0.046875l0 -1.34375q2.140625 0 2.921875 -0.78125q0.78125 -0.796875 0.78125 -2.171875q0 -1.0 -0.59375 -1.59375q-0.578125 -0.609375 -1.546875 -0.609375q-1.5625 0 -2.734375 1.109375l-1.0 -1.015625q1.453125 -1.53125 3.71875 -1.53125q1.796875 0 2.84375 1.015625q1.046875 1.015625 1.046875 2.703125q0 1.21875 -0.609375 2.140625q-0.59375 0.90625 -1.75 1.265625zm-4.34375 5.09375q0 0.0625 -0.078125 0.0625q-0.0625 -0.015625 -0.140625 -0.0625l0.09375 -0.125l0.125 0.125zm-0.265625 0.046875q-0.09375 -0.171875 -0.03125 -0.125q0.0625 0.046875 0.078125 0.078125l-0.046875 0.046875z" fill-rule="nonzero"/><path fill="#000000" d="m67.84544 116.35759l0 -13.46875l-4.234371 0l0 -1.5l10.359371 0l0 1.5l-4.40625 0l0 13.46875l-1.71875 0zm17.640594 -10.96875q-0.140625 0.984375 -0.4375 1.953125q-0.296875 0.953125 -0.84375 2.53125l-2.75 7.734375q-0.546875 1.53125 -1.4375 2.21875q-0.890625 0.703125 -2.109375 0.703125q-1.53125 0 -2.515625 -0.9375l0.734375 -1.171875l0.03125 -0.015625l0.015625 0.015625q0.390625 0.359375 0.8125 0.53125q0.4375 0.171875 1.015625 0.171875q0.890625 0 1.421875 -0.625q0.53125 -0.625 1.03125 -2.0625l-4.484375 -11.046875l1.796875 0l3.40625 8.78125l1.4375 -4.40625q0.53125 -1.65625 0.78125 -2.53125q0.25 -0.890625 0.375 -1.84375l1.71875 0zm-9.0625 12.9375q0 0.046875 -0.046875 0.046875l-0.203125 -0.046875l0.109375 -0.125l0.140625 0.09375l0 0.03125zm-0.265625 0.078125q-0.125 -0.125 -0.0625 -0.109375q0.0625 0.03125 0.078125 0.03125l-0.015625 0.078125zm12.1405945 -13.015625l1.75 0l0 2.15625q0.359375 -1.203125 1.25 -1.796875q0.890625 -0.59375 2.09375 -0.59375q1.25 0 2.28125 0.640625q1.046875 0.625 1.671875 1.90625q0.625 1.265625 0.625 3.09375q0 1.84375 -0.65625 3.171875q-0.640625 1.328125 -1.703125 2.0q-1.0625 0.671875 -2.265625 0.671875q-0.984375 0 -1.859375 -0.453125q-0.859375 -0.453125 -1.40625 -1.265625l0 5.453125l-1.78125 0l0 -14.984375zm4.75 9.71875q1.328125 0 2.21875 -0.984375q0.90625 -1.0 0.90625 -3.265625q0 -2.03125 -0.796875 -3.125q-0.78125 -1.09375 -2.25 -1.09375q-1.375 0 -2.234375 1.140625q-0.84375 1.140625 -0.84375 3.46875q0.046875 1.890625 0.84375 2.875q0.796875 0.984375 2.15625 0.984375zm12.3437195 1.484375q-2.453125 0 -3.90625 -1.484375q-1.453125 -1.484375 -1.453125 -4.203125q0 -1.796875 0.671875 -3.09375q0.671875 -1.3125 1.8125 -2.0q1.140625 -0.6875 2.5625 -0.6875q1.984375 0 3.21875 1.328125q1.25 1.3125 1.25 3.875q0 0.265625 -0.0625 0.796875l-7.796875 0q0.09375 2.015625 1.125 3.046875q1.03125 1.03125 2.625 1.03125q1.71875 0 2.828125 -1.21875l0.96875 0.9375q-1.40625 1.671875 -3.84375 1.671875zm2.390625 -6.8125q0 -1.53125 -0.78125 -2.421875q-0.765625 -0.90625 -2.046875 -0.90625q-1.203125 0 -2.09375 0.84375q-0.875 0.828125 -1.09375 2.484375l6.015625 0zm8.7968445 -0.8125q-0.5625 0 -1.0 -0.40625q-0.421875 -0.40625 -0.421875 -0.96875q0 -0.578125 0.421875 -0.984375q0.421875 -0.40625 1.0 -0.40625q0.5625 0 1.0 0.40625q0.4375 0.40625 0.4375 0.984375q0 0.5625 -0.4375 0.96875q-0.4375 0.40625 -1.0 0.40625zm0 7.65625q-0.609375 0 -1.015625 -0.390625q-0.40625 -0.40625 -0.40625 -0.984375q0 -0.578125 0.421875 -0.984375q0.421875 -0.40625 1.0 -0.40625q0.5625 0 1.0 0.40625q0.4375 0.40625 0.4375 0.984375q0 0.5625 -0.421875 0.96875q-0.421875 0.40625 -1.015625 0.40625zm23.890564 -0.03125q-1.171875 0 -2.203125 -0.65625q-1.03125 -0.65625 -1.6875 -1.96875q-0.640625 -1.328125 -0.640625 -3.203125q0 -1.890625 0.671875 -3.15625q0.671875 -1.28125 1.71875 -1.890625q1.0625 -0.609375 2.25 -0.609375q1.09375 0 1.921875 0.5q0.828125 0.5 1.265625 1.390625l0 -6.59375l1.828125 0l0 0.15625q-0.15625 0.15625 -0.1875 0.328125q-0.03125 0.15625 -0.03125 0.5625l0.015625 13.203125q0 0.578125 0.03125 0.953125q0.046875 0.359375 0.21875 0.75l-1.703125 0q-0.171875 -0.390625 -0.21875 -0.75q-0.03125 -0.375 -0.03125 -0.953125q-0.53125 0.90625 -1.359375 1.421875q-0.828125 0.515625 -1.859375 0.515625zm0.265625 -1.5q1.5 0 2.1875 -1.171875q0.703125 -1.1875 0.703125 -3.109375q0 -1.9375 -0.765625 -3.109375q-0.75 -1.1875 -2.265625 -1.1875q-1.4375 0 -2.203125 1.078125q-0.765625 1.0625 -0.765625 2.90625q0 2.109375 0.796875 3.359375q0.8125 1.234375 2.3125 1.234375zm12.1249695 1.453125q-1.46875 0 -2.625 -0.71875q-1.140625 -0.71875 -1.796875 -2.015625q-0.640625 -1.296875 -0.640625 -2.953125q0 -1.65625 0.640625 -2.953125q0.65625 -1.296875 1.796875 -2.015625q1.15625 -0.734375 2.625 -0.734375q1.46875 0 2.609375 0.734375q1.15625 0.71875 1.796875 2.015625q0.65625 1.296875 0.65625 2.953125q0 1.65625 -0.65625 2.953125q-0.640625 1.296875 -1.796875 2.015625q-1.140625 0.71875 -2.609375 0.71875zm0 -1.4375q0.9375 0 1.671875 -0.546875q0.734375 -0.5625 1.140625 -1.53125q0.421875 -0.96875 0.421875 -2.1875q0 -1.875 -0.90625 -3.0625q-0.90625 -1.1875 -2.328125 -1.1875q-1.421875 0 -2.328125 1.1875q-0.90625 1.1875 -0.90625 3.0625q0 1.21875 0.40625 2.1875q0.421875 0.96875 1.15625 1.53125q0.734375 0.546875 1.671875 0.546875zm11.2968445 1.515625q-1.71875 0 -2.75 -1.28125q-1.03125 -1.28125 -1.015625 -3.828125l0.03125 -6.125l1.671875 0l0 6.125q0 1.96875 0.6875 2.84375q0.6875 0.875 1.8125 0.875q1.25 0 2.09375 -0.96875q0.859375 -0.984375 0.859375 -2.828125l0 -6.046875l1.6875 0l0 9.265625q0 0.578125 0.03125 0.953125q0.03125 0.359375 0.203125 0.75l-1.65625 0q-0.171875 -0.359375 -0.203125 -0.734375q-0.03125 -0.390625 -0.03125 -0.953125q-0.53125 0.921875 -1.4375 1.4375q-0.890625 0.515625 -1.984375 0.515625zm13.0937195 0q-0.984375 0 -1.828125 -0.4375q-0.84375 -0.453125 -1.421875 -1.265625l-0.59375 1.4375l-1.109375 0l0 -15.953125l1.96875 0l0 0.15625q-0.140625 0.15625 -0.1875 0.328125q-0.03125 0.15625 -0.03125 0.5625l0 5.625q0.53125 -0.890625 1.421875 -1.421875q0.90625 -0.53125 1.84375 -0.53125q2.0625 0 3.28125 1.4375q1.234375 1.4375 1.234375 4.203125q0 1.875 -0.65625 3.203125q-0.640625 1.328125 -1.703125 2.0q-1.046875 0.65625 -2.21875 0.65625zm-0.21875 -1.53125q1.296875 0 2.15625 -1.015625q0.859375 -1.03125 0.859375 -3.21875q0 -2.109375 -0.8125 -3.171875q-0.796875 -1.078125 -2.15625 -1.078125q-1.34375 0 -2.1875 1.203125q-0.84375 1.203125 -0.84375 3.09375q0 4.1875 2.984375 4.1875zm7.7187195 1.265625l0 -1.390625l3.25 0l0 -13.171875l-3.09375 0l0 -1.390625l4.84375 0l0 14.5625l3.21875 0l0 1.390625l-8.21875 0zm16.640594 0.234375q-2.453125 0 -3.90625 -1.484375q-1.453125 -1.484375 -1.453125 -4.203125q0 -1.796875 0.671875 -3.09375q0.671875 -1.3125 1.8125 -2.0q1.140625 -0.6875 2.5625 -0.6875q1.984375 0 3.21875 1.328125q1.25 1.3125 1.25 3.875q0 0.265625 -0.0625 0.796875l-7.796875 0q0.09375 2.015625 1.125 3.046875q1.03125 1.03125 2.625 1.03125q1.71875 0 2.828125 -1.21875l0.96875 0.9375q-1.40625 1.671875 -3.84375 1.671875zm2.390625 -6.8125q0 -1.53125 -0.78125 -2.421875q-0.765625 -0.90625 -2.046875 -0.90625q-1.203125 0 -2.09375 0.84375q-0.875 0.828125 -1.09375 2.484375l6.015625 0z" fill-rule="nonzero"/><path fill="#000000" fill-opacity="0.0" d="m241.70079 12.619423l136.12599 0l0 55.338585l-136.12599 0z" fill-rule="evenodd"/><path fill="#0000ff" d="m272.11145 43.128174q-1.171875 0.984375 -2.265625 1.40625q-1.078125 0.40625 -2.3125 0.40625q-2.046875 0 -3.15625 -1.0q-1.09375 -1.0 -1.09375 -2.5625q0 -0.921875 0.40625 -1.671875q0.421875 -0.75 1.09375 -1.203125q0.671875 -0.46875 1.515625 -0.703125q0.625 -0.15625 1.875 -0.3125q2.5625 -0.3125 3.765625 -0.734375q0.015625 -0.421875 0.015625 -0.546875q0 -1.28125 -0.609375 -1.8125q-0.796875 -0.71875 -2.390625 -0.71875q-1.5 0 -2.203125 0.53125q-0.703125 0.515625 -1.046875 1.84375l-2.0625 -0.28125q0.28125 -1.328125 0.921875 -2.140625q0.640625 -0.8125 1.859375 -1.25q1.21875 -0.453125 2.828125 -0.453125q1.59375 0 2.59375 0.375q1.0 0.375 1.46875 0.953125q0.46875 0.5625 0.65625 1.4375q0.09375 0.53125 0.09375 1.9375l0 2.8125q0 2.9375 0.140625 3.71875q0.140625 0.78125 0.53125 1.5l-2.203125 0q-0.328125 -0.65625 -0.421875 -1.53125zm-0.171875 -4.71875q-1.15625 0.46875 -3.453125 0.796875q-1.296875 0.1875 -1.84375 0.421875q-0.53125 0.234375 -0.828125 0.6875q-0.28125 0.453125 -0.28125 1.0q0 0.84375 0.625 1.40625q0.640625 0.5625 1.875 0.5625q1.21875 0 2.171875 -0.53125q0.953125 -0.53125 1.390625 -1.453125q0.34375 -0.71875 0.34375 -2.109375l0 -0.78125zm5.3789062 6.25l0 -12.453125l1.890625 0l0 1.890625q0.734375 -1.328125 1.34375 -1.75q0.625 -0.421875 1.359375 -0.421875q1.0625 0 2.171875 0.6875l-0.734375 1.953125q-0.765625 -0.453125 -1.546875 -0.453125q-0.6875 0 -1.25 0.421875q-0.546875 0.40625 -0.78125 1.140625q-0.34375 1.125 -0.34375 2.46875l0 6.515625l-2.109375 0zm7.9921875 0l0 -12.453125l1.890625 0l0 1.890625q0.734375 -1.328125 1.34375 -1.75q0.625 -0.421875 1.359375 -0.421875q1.0625 0 2.171875 0.6875l-0.734375 1.953125q-0.765625 -0.453125 -1.546875 -0.453125q-0.6875 0 -1.25 0.421875q-0.546875 0.40625 -0.78125 1.140625q-0.34375 1.125 -0.34375 2.46875l0 6.515625l-2.109375 0zm16.132812 -1.53125q-1.171875 0.984375 -2.265625 1.40625q-1.078125 0.40625 -2.3125 0.40625q-2.046875 0 -3.15625 -1.0q-1.09375 -1.0 -1.09375 -2.5625q0 -0.921875 0.40625 -1.671875q0.421875 -0.75 1.09375 -1.203125q0.671875 -0.46875 1.515625 -0.703125q0.625 -0.15625 1.875 -0.3125q2.5625 -0.3125 3.765625 -0.734375q0.015625 -0.421875 0.015625 -0.546875q0 -1.28125 -0.609375 -1.8125q-0.796875 -0.71875 -2.390625 -0.71875q-1.5 0 -2.203125 0.53125q-0.703125 0.515625 -1.046875 1.84375l-2.0625 -0.28125q0.28125 -1.328125 0.921875 -2.140625q0.640625 -0.8125 1.859375 -1.25q1.21875 -0.453125 2.828125 -0.453125q1.59375 0 2.59375 0.375q1.0 0.375 1.46875 0.953125q0.46875 0.5625 0.65625 1.4375q0.09375 0.53125 0.09375 1.9375l0 2.8125q0 2.9375 0.140625 3.71875q0.140625 0.78125 0.53125 1.5l-2.203125 0q-0.328125 -0.65625 -0.421875 -1.53125zm-0.171875 -4.71875q-1.15625 0.46875 -3.453125 0.796875q-1.296875 0.1875 -1.84375 0.421875q-0.53125 0.234375 -0.828125 0.6875q-0.28125 0.453125 -0.28125 1.0q0 0.84375 0.625 1.40625q0.640625 0.5625 1.875 0.5625q1.21875 0 2.171875 -0.53125q0.953125 -0.53125 1.390625 -1.453125q0.34375 -0.71875 0.34375 -2.109375l0 -0.78125zm5.3007507 11.046875l-0.234375 -1.984375q0.703125 0.1875 1.21875 0.1875q0.703125 0 1.125 -0.234375q0.421875 -0.234375 0.6875 -0.65625q0.203125 -0.3125 0.640625 -1.5625q0.0625 -0.1875 0.1875 -0.515625l-4.7187195 -12.484375l2.2655945 0l2.59375 7.21875q0.5 1.359375 0.90625 2.875q0.359375 -1.453125 0.859375 -2.828125l2.671875 -7.265625l2.109375 0l-4.734375 12.671875q-0.765625 2.046875 -1.1875 2.8125q-0.5625 1.046875 -1.296875 1.53125q-0.71875 0.484375 -1.734375 0.484375q-0.609375 0 -1.359375 -0.25zm19.453125 -4.796875l-2.109375 0l0 -13.4375q-0.75 0.71875 -2.0 1.453125q-1.234375 0.71875 -2.21875 1.078125l0 -2.03125q1.78125 -0.828125 3.09375 -2.015625q1.328125 -1.1875 1.875 -2.296875l1.359375 0l0 17.25zm6.0351562 4.765625l0 -21.953125l4.65625 0l0 1.75l-2.546875 0l0 18.46875l2.546875 0l0 1.734375l-4.65625 0zm6.0429688 -13.234375q0 -3.046875 0.625 -4.90625q0.625 -1.859375 1.859375 -2.859375q1.234375 -1.015625 3.109375 -1.015625q1.390625 0 2.421875 0.5625q1.046875 0.546875 1.71875 1.59375q0.6875 1.046875 1.078125 2.5625q0.390625 1.5 0.390625 4.0625q0 3.015625 -0.625 4.875q-0.625 1.859375 -1.859375 2.875q-1.234375 1.015625 -3.125 1.015625q-2.484375 0 -3.890625 -1.78125q-1.703125 -2.15625 -1.703125 -6.984375zm2.171875 0q0 4.21875 0.984375 5.625q0.984375 1.40625 2.4375 1.40625q1.453125 0 2.4375 -1.40625q1.0 -1.40625 1.0 -5.625q0 -4.25 -1.0 -5.640625q-0.984375 -1.390625 -2.453125 -1.390625q-1.453125 0 -2.328125 1.21875q-1.078125 1.578125 -1.078125 5.8125zm15.285156 13.234375l-4.65625 0l0 -1.734375l2.546875 0l0 -18.46875l-2.546875 0l0 -1.75l4.65625 0l0 21.953125z" fill-rule="nonzero"/><path fill="#000000" fill-opacity="0.0" d="m377.8399 12.619423l136.12598 0l0 55.338585l-136.12598 0z" fill-rule="evenodd"/><path fill="#0000ff" d="m408.25055 43.128174q-1.171875 0.984375 -2.265625 1.40625q-1.078125 0.40625 -2.3125 0.40625q-2.046875 0 -3.15625 -1.0q-1.09375 -1.0 -1.09375 -2.5625q0 -0.921875 0.40625 -1.671875q0.421875 -0.75 1.09375 -1.203125q0.671875 -0.46875 1.515625 -0.703125q0.625 -0.15625 1.875 -0.3125q2.5625 -0.3125 3.765625 -0.734375q0.015625 -0.421875 0.015625 -0.546875q0 -1.28125 -0.609375 -1.8125q-0.796875 -0.71875 -2.390625 -0.71875q-1.5 0 -2.203125 0.53125q-0.703125 0.515625 -1.046875 1.84375l-2.0625 -0.28125q0.28125 -1.328125 0.921875 -2.140625q0.640625 -0.8125 1.859375 -1.25q1.21875 -0.453125 2.828125 -0.453125q1.59375 0 2.59375 0.375q1.0 0.375 1.46875 0.953125q0.46875 0.5625 0.65625 1.4375q0.09375 0.53125 0.09375 1.9375l0 2.8125q0 2.9375 0.140625 3.71875q0.140625 0.78125 0.53125 1.5l-2.203125 0q-0.328125 -0.65625 -0.421875 -1.53125zm-0.171875 -4.71875q-1.15625 0.46875 -3.453125 0.796875q-1.296875 0.1875 -1.84375 0.421875q-0.53125 0.234375 -0.828125 0.6875q-0.28125 0.453125 -0.28125 1.0q0 0.84375 0.625 1.40625q0.640625 0.5625 1.875 0.5625q1.21875 0 2.171875 -0.53125q0.953125 -0.53125 1.390625 -1.453125q0.34375 -0.71875 0.34375 -2.109375l0 -0.78125zm5.3789062 6.25l0 -12.453125l1.890625 0l0 1.890625q0.734375 -1.328125 1.34375 -1.75q0.625 -0.421875 1.359375 -0.421875q1.0625 0 2.171875 0.6875l-0.734375 1.953125q-0.765625 -0.453125 -1.546875 -0.453125q-0.6875 0 -1.25 0.421875q-0.546875 0.40625 -0.78125 1.140625q-0.34375 1.125 -0.34375 2.46875l0 6.515625l-2.109375 0zm7.9921875 0l0 -12.453125l1.890625 0l0 1.890625q0.734375 -1.328125 1.34375 -1.75q0.625 -0.421875 1.359375 -0.421875q1.0625 0 2.171875 0.6875l-0.734375 1.953125q-0.765625 -0.453125 -1.546875 -0.453125q-0.6875 0 -1.25 0.421875q-0.546875 0.40625 -0.78125 1.140625q-0.34375 1.125 -0.34375 2.46875l0 6.515625l-2.109375 0zm16.132812 -1.53125q-1.171875 0.984375 -2.265625 1.40625q-1.078125 0.40625 -2.3125 0.40625q-2.046875 0 -3.15625 -1.0q-1.09375 -1.0 -1.09375 -2.5625q0 -0.921875 0.40625 -1.671875q0.421875 -0.75 1.09375 -1.203125q0.671875 -0.46875 1.515625 -0.703125q0.625 -0.15625 1.875 -0.3125q2.5625 -0.3125 3.765625 -0.734375q0.015625 -0.421875 0.015625 -0.546875q0 -1.28125 -0.609375 -1.8125q-0.796875 -0.71875 -2.390625 -0.71875q-1.5 0 -2.203125 0.53125q-0.703125 0.515625 -1.046875 1.84375l-2.0625 -0.28125q0.28125 -1.328125 0.921875 -2.140625q0.640625 -0.8125 1.859375 -1.25q1.21875 -0.453125 2.828125 -0.453125q1.59375 0 2.59375 0.375q1.0 0.375 1.46875 0.953125q0.46875 0.5625 0.65625 1.4375q0.09375 0.53125 0.09375 1.9375l0 2.8125q0 2.9375 0.140625 3.71875q0.140625 0.78125 0.53125 1.5l-2.203125 0q-0.328125 -0.65625 -0.421875 -1.53125zm-0.171875 -4.71875q-1.15625 0.46875 -3.453125 0.796875q-1.296875 0.1875 -1.84375 0.421875q-0.53125 0.234375 -0.828125 0.6875q-0.28125 0.453125 -0.28125 1.0q0 0.84375 0.625 1.40625q0.640625 0.5625 1.875 0.5625q1.21875 0 2.171875 -0.53125q0.953125 -0.53125 1.390625 -1.453125q0.34375 -0.71875 0.34375 -2.109375l0 -0.78125zm5.3007812 11.046875l-0.234375 -1.984375q0.703125 0.1875 1.21875 0.1875q0.703125 0 1.125 -0.234375q0.421875 -0.234375 0.6875 -0.65625q0.203125 -0.3125 0.640625 -1.5625q0.0625 -0.1875 0.1875 -0.515625l-4.71875 -12.484375l2.265625 0l2.59375 7.21875q0.5 1.359375 0.90625 2.875q0.359375 -1.453125 0.859375 -2.828125l2.671875 -7.265625l2.109375 0l-4.734375 12.671875q-0.765625 2.046875 -1.1875 2.8125q-0.5625 1.046875 -1.296875 1.53125q-0.71875 0.484375 -1.734375 0.484375q-0.609375 0 -1.359375 -0.25zm19.453125 -4.796875l-2.109375 0l0 -13.4375q-0.75 0.71875 -2.0 1.453125q-1.234375 0.71875 -2.21875 1.078125l0 -2.03125q1.78125 -0.828125 3.09375 -2.015625q1.328125 -1.1875 1.875 -2.296875l1.359375 0l0 17.25zm6.0351562 4.765625l0 -21.953125l4.65625 0l0 1.75l-2.546875 0l0 18.46875l2.546875 0l0 1.734375l-4.65625 0zm13.980469 -4.765625l-2.109375 0l0 -13.4375q-0.75 0.71875 -2.0 1.453125q-1.234375 0.71875 -2.21875 1.078125l0 -2.03125q1.78125 -0.828125 3.09375 -2.015625q1.328125 -1.1875 1.875 -2.296875l1.359375 0l0 17.25zm9.519531 4.765625l-4.65625 0l0 -1.734375l2.546875 0l0 -18.46875l-2.546875 0l0 -1.75l4.65625 0l0 21.953125z" fill-rule="nonzero"/><path fill="#000000" fill-opacity="0.0" d="m660.65356 135.16798c0 8.86264 -7.287781 16.047241 -16.27771 16.047241l-184.28796 0c-8.989899 0 -16.27768 7.184601 -16.27768 16.047241l0 0c0 -8.86264 -7.287781 -16.047241 -16.27768 -16.047241l-180.11311 0l0 0c-8.989914 0 -16.27768 -7.184601 -16.27768 -16.047241z" fill-rule="evenodd"/><path fill="#000000" fill-opacity="0.0" d="m660.65356 135.16798c0 8.86264 -7.287781 16.047241 -16.27771 16.047241l-184.28796 0c-8.989899 0 -16.27768 7.184601 -16.27768 16.047241l0 0c0 -8.86264 -7.287781 -16.047241 -16.27768 -16.047241l-180.11311 0l0 0c-8.989914 0 -16.27768 -7.184601 -16.27768 -16.047241" fill-rule="evenodd"/><path stroke="#000000" stroke-width="1.0" stroke-linejoin="round" stroke-linecap="butt" d="m660.65356 135.16798c0 8.86264 -7.287781 16.047241 -16.27771 16.047241l-184.28796 0c-8.989899 0 -16.27768 7.184601 -16.27768 16.047241l0 0c0 -8.86264 -7.287781 -16.047241 -16.27768 -16.047241l-180.11311 0l0 0c-8.989914 0 -16.27768 -7.184601 -16.27768 -16.047241" fill-rule="evenodd"/><path fill="#000000" fill-opacity="0.0" d="m319.63516 172.48032l250.4252 0l0 67.18111l-250.4252 0z" fill-rule="evenodd"/><path fill="#000000" d="m346.91705 194.71281l1.765625 0.453125q-0.5625 2.171875 -2.0 3.328125q-1.4375 1.140625 -3.53125 1.140625q-2.15625 0 -3.515625 -0.875q-1.34375 -0.890625 -2.0625 -2.546875q-0.703125 -1.671875 -0.703125 -3.59375q0 -2.078125 0.796875 -3.625q0.796875 -1.5625 2.265625 -2.359375q1.484375 -0.8125 3.25 -0.8125q2.0 0 3.359375 1.015625q1.375 1.015625 1.90625 2.875l-1.734375 0.40625q-0.46875 -1.453125 -1.359375 -2.109375q-0.875 -0.671875 -2.203125 -0.671875q-1.546875 0 -2.578125 0.734375q-1.03125 0.734375 -1.453125 1.984375q-0.421875 1.234375 -0.421875 2.5625q0 1.703125 0.5 2.96875q0.5 1.265625 1.546875 1.90625q1.046875 0.625 2.265625 0.625q1.484375 0 2.515625 -0.859375q1.03125 -0.859375 1.390625 -2.546875zm3.129181 -0.15625q0 -2.6875 1.484375 -3.96875q1.25 -1.078125 3.046875 -1.078125q2.0 0 3.265625 1.3125q1.265625 1.296875 1.265625 3.609375q0 1.859375 -0.5625 2.9375q-0.5625 1.0625 -1.640625 1.65625q-1.0625 0.59375 -2.328125 0.59375q-2.03125 0 -3.28125 -1.296875q-1.25 -1.3125 -1.25 -3.765625zm1.6875 0q0 1.859375 0.796875 2.796875q0.8125 0.921875 2.046875 0.921875q1.21875 0 2.03125 -0.921875q0.8125 -0.9375 0.8125 -2.84375q0 -1.796875 -0.8125 -2.71875q-0.8125 -0.921875 -2.03125 -0.921875q-1.234375 0 -2.046875 0.921875q-0.796875 0.90625 -0.796875 2.765625zm9.297607 4.84375l0 -9.671875l1.46875 0l0 1.375q1.0625 -1.59375 3.078125 -1.59375q0.875 0 1.609375 0.3125q0.734375 0.3125 1.09375 0.828125q0.375 0.5 0.515625 1.203125q0.09375 0.453125 0.09375 1.59375l0 5.953125l-1.640625 0l0 -5.890625q0 -1.0 -0.203125 -1.484375q-0.1875 -0.5 -0.671875 -0.796875q-0.484375 -0.296875 -1.140625 -0.296875q-1.046875 0 -1.8125 0.671875q-0.75 0.65625 -0.75 2.515625l0 5.28125l-1.640625 0zm13.953827 -1.46875l0.234375 1.453125q-0.6875 0.140625 -1.234375 0.140625q-0.890625 0 -1.390625 -0.28125q-0.484375 -0.28125 -0.6875 -0.734375q-0.203125 -0.46875 -0.203125 -1.9375l0 -5.578125l-1.203125 0l0 -1.265625l1.203125 0l0 -2.390625l1.625 -0.984375l0 3.375l1.65625 0l0 1.265625l-1.65625 0l0 5.671875q0 0.6875 0.078125 0.890625q0.09375 0.203125 0.28125 0.328125q0.203125 0.109375 0.578125 0.109375q0.265625 0 0.71875 -0.0625zm1.6051941 -10.0l0 -1.890625l1.640625 0l0 1.890625l-1.640625 0zm0 11.46875l0 -9.671875l1.640625 0l0 9.671875l-1.640625 0zm4.144806 0l0 -9.671875l1.46875 0l0 1.375q1.0625 -1.59375 3.078125 -1.59375q0.875 0 1.609375 0.3125q0.734375 0.3125 1.09375 0.828125q0.375 0.5 0.515625 1.203125q0.09375 0.453125 0.09375 1.59375l0 5.953125l-1.640625 0l0 -5.890625q0 -1.0 -0.203125 -1.484375q-0.1875 -0.5 -0.671875 -0.796875q-0.484375 -0.296875 -1.140625 -0.296875q-1.046875 0 -1.8125 0.671875q-0.75 0.65625 -0.75 2.515625l0 5.28125l-1.640625 0zm10.063232 0.796875l1.59375 0.234375q0.109375 0.75 0.5625 1.078125q0.609375 0.453125 1.671875 0.453125q1.140625 0 1.75 -0.453125q0.625 -0.453125 0.84375 -1.265625q0.125 -0.5 0.109375 -2.109375q-1.0625 1.265625 -2.671875 1.265625q-2.0 0 -3.09375 -1.4375q-1.09375 -1.4375 -1.09375 -3.453125q0 -1.390625 0.5 -2.5625q0.515625 -1.171875 1.453125 -1.796875q0.953125 -0.640625 2.25 -0.640625q1.703125 0 2.8125 1.375l0 -1.15625l1.515625 0l0 8.359375q0 2.265625 -0.46875 3.203125q-0.453125 0.9375 -1.453125 1.484375q-0.984375 0.546875 -2.453125 0.546875q-1.71875 0 -2.796875 -0.78125q-1.0625 -0.765625 -1.03125 -2.34375zm1.359375 -5.8125q0 1.90625 0.75 2.78125q0.765625 0.875 1.90625 0.875q1.125 0 1.890625 -0.859375q0.765625 -0.875 0.765625 -2.734375q0 -1.78125 -0.796875 -2.671875q-0.78125 -0.90625 -1.890625 -0.90625q-1.09375 0 -1.859375 0.890625q-0.765625 0.875 -0.765625 2.625zm15.656952 5.015625l0 -1.421875q-1.125 1.640625 -3.0625 1.640625q-0.859375 0 -1.609375 -0.328125q-0.734375 -0.328125 -1.09375 -0.828125q-0.359375 -0.5 -0.5 -1.21875q-0.109375 -0.46875 -0.109375 -1.53125l0 -5.984375l1.640625 0l0 5.359375q0 1.28125 0.109375 1.734375q0.15625 0.640625 0.65625 1.015625q0.5 0.375 1.234375 0.375q0.734375 0 1.375 -0.375q0.65625 -0.390625 0.921875 -1.03125q0.265625 -0.65625 0.265625 -1.890625l0 -5.1875l1.640625 0l0 9.671875l-1.46875 0zm3.4382324 -4.84375q0 -2.6875 1.484375 -3.96875q1.25 -1.078125 3.046875 -1.078125q2.0 0 3.265625 1.3125q1.265625 1.296875 1.265625 3.609375q0 1.859375 -0.5625 2.9375q-0.5625 1.0625 -1.640625 1.65625q-1.0625 0.59375 -2.328125 0.59375q-2.03125 0 -3.28125 -1.296875q-1.25 -1.3125 -1.25 -3.765625zm1.6875 0q0 1.859375 0.796875 2.796875q0.8125 0.921875 2.046875 0.921875q1.21875 0 2.03125 -0.921875q0.8125 -0.9375 0.8125 -2.84375q0 -1.796875 -0.8125 -2.71875q-0.8125 -0.921875 -2.03125 -0.921875q-1.234375 0 -2.046875 0.921875q-0.796875 0.90625 -0.796875 2.765625zm15.625702 4.84375l0 -1.421875q-1.125 1.640625 -3.0625 1.640625q-0.859375 0 -1.609375 -0.328125q-0.734375 -0.328125 -1.09375 -0.828125q-0.359375 -0.5 -0.5 -1.21875q-0.109375 -0.46875 -0.109375 -1.53125l0 -5.984375l1.640625 0l0 5.359375q0 1.28125 0.109375 1.734375q0.15625 0.640625 0.65625 1.015625q0.5 0.375 1.234375 0.375q0.734375 0 1.375 -0.375q0.65625 -0.390625 0.921875 -1.03125q0.265625 -0.65625 0.265625 -1.890625l0 -5.1875l1.640625 0l0 9.671875l-1.46875 0zm3.3913574 -2.890625l1.625 -0.25q0.125 0.96875 0.75 1.5q0.625 0.515625 1.75 0.515625q1.125 0 1.671875 -0.453125q0.546875 -0.46875 0.546875 -1.09375q0 -0.546875 -0.484375 -0.875q-0.328125 -0.21875 -1.671875 -0.546875q-1.8125 -0.46875 -2.515625 -0.796875q-0.6875 -0.328125 -1.046875 -0.90625q-0.359375 -0.59375 -0.359375 -1.3125q0 -0.640625 0.296875 -1.1875q0.296875 -0.5625 0.8125 -0.921875q0.375 -0.28125 1.03125 -0.46875q0.671875 -0.203125 1.421875 -0.203125q1.140625 0 2.0 0.328125q0.859375 0.328125 1.265625 0.890625q0.421875 0.5625 0.578125 1.5l-1.609375 0.21875q-0.109375 -0.75 -0.640625 -1.171875q-0.515625 -0.421875 -1.46875 -0.421875q-1.140625 0 -1.625 0.375q-0.46875 0.375 -0.46875 0.875q0 0.3125 0.1875 0.578125q0.203125 0.265625 0.640625 0.4375q0.234375 0.09375 1.4375 0.421875q1.75 0.453125 2.4375 0.75q0.6875 0.296875 1.078125 0.859375q0.390625 0.5625 0.390625 1.40625q0 0.828125 -0.484375 1.546875q-0.46875 0.71875 -1.375 1.125q-0.90625 0.390625 -2.046875 0.390625q-1.875 0 -2.875 -0.78125q-0.984375 -0.78125 -1.25 -2.328125zm18.292664 6.8125q-1.359375 -1.703125 -2.296875 -4.0q-0.9375 -2.296875 -0.9375 -4.765625q0 -2.15625 0.703125 -4.140625q0.828125 -2.3125 2.53125 -4.59375l1.171875 0q-1.09375 1.890625 -1.453125 2.703125q-0.546875 1.25 -0.875 2.625q-0.390625 1.703125 -0.390625 3.421875q0 4.375 2.71875 8.75l-1.171875 0zm3.087677 -3.921875l0 -9.671875l1.46875 0l0 1.375q1.0625 -1.59375 3.078125 -1.59375q0.875 0 1.609375 0.3125q0.734375 0.3125 1.09375 0.828125q0.375 0.5 0.515625 1.203125q0.09375 0.453125 0.09375 1.59375l0 5.953125l-1.640625 0l0 -5.890625q0 -1.0 -0.203125 -1.484375q-0.1875 -0.5 -0.671875 -0.796875q-0.484375 -0.296875 -1.140625 -0.296875q-1.046875 0 -1.8125 0.671875q-0.75 0.65625 -0.75 2.515625l0 5.28125l-1.640625 0zm17.000702 -3.109375l1.6875 0.203125q-0.40625 1.484375 -1.484375 2.3125q-1.078125 0.8125 -2.765625 0.8125q-2.125 0 -3.375 -1.296875q-1.234375 -1.3125 -1.234375 -3.671875q0 -2.453125 1.25 -3.796875q1.265625 -1.34375 3.265625 -1.34375q1.9375 0 3.15625 1.328125q1.234375 1.3125 1.234375 3.703125q0 0.15625 0 0.4375l-7.21875 0q0.09375 1.59375 0.90625 2.453125q0.8125 0.84375 2.015625 0.84375q0.90625 0 1.546875 -0.46875q0.640625 -0.484375 1.015625 -1.515625zm-5.390625 -2.65625l5.40625 0q-0.109375 -1.21875 -0.625 -1.828125q-0.78125 -0.953125 -2.03125 -0.953125q-1.125 0 -1.90625 0.765625q-0.765625 0.75 -0.84375 2.015625zm8.047607 5.765625l3.53125 -5.03125l-3.265625 -4.640625l2.046875 0l1.484375 2.265625q0.421875 0.640625 0.671875 1.078125q0.40625 -0.59375 0.734375 -1.0625l1.640625 -2.28125l1.953125 0l-3.34375 4.546875l3.59375 5.125l-2.015625 0l-1.984375 -3.0l-0.515625 -0.8125l-2.546875 3.8125l-1.984375 0zm14.0 -1.46875l0.234375 1.453125q-0.6875 0.140625 -1.234375 0.140625q-0.890625 0 -1.390625 -0.28125q-0.484375 -0.28125 -0.6875 -0.734375q-0.203125 -0.46875 -0.203125 -1.9375l0 -5.578125l-1.203125 0l0 -1.265625l1.203125 0l0 -2.390625l1.625 -0.984375l0 3.375l1.65625 0l0 1.265625l-1.65625 0l0 5.671875q0 0.6875 0.078125 0.890625q0.09375 0.203125 0.28125 0.328125q0.203125 0.109375 0.578125 0.109375q0.265625 0 0.71875 -0.0625zm10.366608 0l0.234375 1.453125q-0.6875 0.140625 -1.234375 0.140625q-0.890625 0 -1.390625 -0.28125q-0.484375 -0.28125 -0.6875 -0.734375q-0.203125 -0.46875 -0.203125 -1.9375l0 -5.578125l-1.203125 0l0 -1.265625l1.203125 0l0 -2.390625l1.625 -0.984375l0 3.375l1.65625 0l0 1.265625l-1.65625 0l0 5.671875q0 0.6875 0.078125 0.890625q0.09375 0.203125 0.28125 0.328125q0.203125 0.109375 0.578125 0.109375q0.265625 0 0.71875 -0.0625zm0.9957886 -3.375q0 -2.6875 1.484375 -3.96875q1.25 -1.078125 3.046875 -1.078125q2.0 0 3.265625 1.3125q1.265625 1.296875 1.265625 3.609375q0 1.859375 -0.5625 2.9375q-0.5625 1.0625 -1.640625 1.65625q-1.0625 0.59375 -2.328125 0.59375q-2.03125 0 -3.28125 -1.296875q-1.25 -1.3125 -1.25 -3.765625zm1.6875 0q0 1.859375 0.796875 2.796875q0.8125 0.921875 2.046875 0.921875q1.21875 0 2.03125 -0.921875q0.8125 -0.9375 0.8125 -2.84375q0 -1.796875 -0.8125 -2.71875q-0.8125 -0.921875 -2.03125 -0.921875q-1.234375 0 -2.046875 0.921875q-0.796875 0.90625 -0.796875 2.765625zm21.105927 1.734375l1.6875 0.203125q-0.40625 1.484375 -1.484375 2.3125q-1.078125 0.8125 -2.765625 0.8125q-2.125 0 -3.375 -1.296875q-1.234375 -1.3125 -1.234375 -3.671875q0 -2.453125 1.25 -3.796875q1.265625 -1.34375 3.265625 -1.34375q1.9375 0 3.15625 1.328125q1.234375 1.3125 1.234375 3.703125q0 0.15625 0 0.4375l-7.21875 0q0.09375 1.59375 0.90625 2.453125q0.8125 0.84375 2.015625 0.84375q0.90625 0 1.546875 -0.46875q0.640625 -0.484375 1.015625 -1.515625zm-5.390625 -2.65625l5.40625 0q-0.109375 -1.21875 -0.625 -1.828125q-0.78125 -0.953125 -2.03125 -0.953125q-1.125 0 -1.90625 0.765625q-0.765625 0.75 -0.84375 2.015625zm15.453857 4.578125q-0.921875 0.765625 -1.765625 1.09375q-0.828125 0.3125 -1.796875 0.3125q-1.59375 0 -2.453125 -0.78125q-0.859375 -0.78125 -0.859375 -1.984375q0 -0.71875 0.328125 -1.296875q0.328125 -0.59375 0.84375 -0.9375q0.53125 -0.359375 1.1875 -0.546875q0.46875 -0.125 1.453125 -0.25q1.984375 -0.234375 2.921875 -0.5625q0.015625 -0.34375 0.015625 -0.421875q0 -1.0 -0.46875 -1.421875q-0.625 -0.546875 -1.875 -0.546875q-1.15625 0 -1.703125 0.40625q-0.546875 0.40625 -0.8125 1.421875l-1.609375 -0.21875q0.21875 -1.015625 0.71875 -1.640625q0.5 -0.640625 1.453125 -0.984375q0.953125 -0.34375 2.1875 -0.34375q1.25 0 2.015625 0.296875q0.78125 0.28125 1.140625 0.734375q0.375 0.4375 0.515625 1.109375q0.078125 0.421875 0.078125 1.515625l0 2.1875q0 2.28125 0.109375 2.890625q0.109375 0.59375 0.40625 1.15625l-1.703125 0q-0.265625 -0.515625 -0.328125 -1.1875zm-0.140625 -3.671875q-0.890625 0.375 -2.671875 0.625q-1.015625 0.140625 -1.4375 0.328125q-0.421875 0.1875 -0.65625 0.53125q-0.21875 0.34375 -0.21875 0.78125q0 0.65625 0.5 1.09375q0.5 0.4375 1.453125 0.4375q0.9375 0 1.671875 -0.40625q0.75 -0.421875 1.09375 -1.140625q0.265625 -0.5625 0.265625 -1.640625l0 -0.609375zm10.516296 1.3125l1.609375 0.21875q-0.265625 1.65625 -1.359375 2.609375q-1.078125 0.9375 -2.671875 0.9375q-1.984375 0 -3.1875 -1.296875q-1.203125 -1.296875 -1.203125 -3.71875q0 -1.578125 0.515625 -2.75q0.515625 -1.171875 1.578125 -1.75q1.0625 -0.59375 2.3125 -0.59375q1.578125 0 2.578125 0.796875q1.0 0.796875 1.28125 2.265625l-1.59375 0.234375q-0.234375 -0.96875 -0.8125 -1.453125q-0.578125 -0.5 -1.390625 -0.5q-1.234375 0 -2.015625 0.890625q-0.78125 0.890625 -0.78125 2.8125q0 1.953125 0.75 2.84375q0.75 0.875 1.953125 0.875q0.96875 0 1.609375 -0.59375q0.65625 -0.59375 0.828125 -1.828125zm3.015625 3.546875l0 -13.359375l1.640625 0l0 4.796875q1.140625 -1.328125 2.890625 -1.328125q1.078125 0 1.859375 0.421875q0.796875 0.421875 1.140625 1.171875q0.34375 0.75 0.34375 2.171875l0 6.125l-1.640625 0l0 -6.125q0 -1.234375 -0.53125 -1.796875q-0.53125 -0.5625 -1.515625 -0.5625q-0.71875 0 -1.359375 0.390625q-0.640625 0.375 -0.921875 1.015625q-0.265625 0.640625 -0.265625 1.78125l0 5.296875l-1.640625 0z" fill-rule="nonzero"/><path fill="#000000" d="m345.4186 216.55656q0 -2.6875 1.484375 -3.96875q1.25 -1.078125 3.046875 -1.078125q2.0 0 3.265625 1.3125q1.265625 1.296875 1.265625 3.609375q0 1.859375 -0.5625 2.9375q-0.5625 1.0625 -1.640625 1.65625q-1.0625 0.59375 -2.328125 0.59375q-2.03125 0 -3.28125 -1.296875q-1.25 -1.3125 -1.25 -3.765625zm1.6875 0q0 1.859375 0.796875 2.796875q0.8125 0.921875 2.046875 0.921875q1.21875 0 2.03125 -0.921875q0.8125 -0.9375 0.8125 -2.84375q0 -1.796875 -0.8125 -2.71875q-0.8125 -0.921875 -2.03125 -0.921875q-1.234375 0 -2.046875 0.921875q-0.796875 0.90625 -0.796875 2.765625zm12.875732 3.375l0.234375 1.453125q-0.6875 0.140625 -1.234375 0.140625q-0.890625 0 -1.390625 -0.28125q-0.484375 -0.28125 -0.6875 -0.734375q-0.203125 -0.46875 -0.203125 -1.9375l0 -5.578125l-1.203125 0l0 -1.265625l1.203125 0l0 -2.390625l1.625 -0.984375l0 3.375l1.65625 0l0 1.265625l-1.65625 0l0 5.671875q0 0.6875 0.078125 0.890625q0.09375 0.203125 0.28125 0.328125q0.203125 0.109375 0.578125 0.109375q0.265625 0 0.71875 -0.0625zm1.6051636 1.46875l0 -13.359375l1.640625 0l0 4.796875q1.140625 -1.328125 2.890625 -1.328125q1.078125 0 1.859375 0.421875q0.796875 0.421875 1.140625 1.171875q0.34375 0.75 0.34375 2.171875l0 6.125l-1.640625 0l0 -6.125q0 -1.234375 -0.53125 -1.796875q-0.53125 -0.5625 -1.515625 -0.5625q-0.71875 0 -1.359375 0.390625q-0.640625 0.375 -0.921875 1.015625q-0.265625 0.640625 -0.265625 1.78125l0 5.296875l-1.640625 0zm17.000732 -3.109375l1.6875 0.203125q-0.40625 1.484375 -1.484375 2.3125q-1.078125 0.8125 -2.765625 0.8125q-2.125 0 -3.375 -1.296875q-1.234375 -1.3125 -1.234375 -3.671875q0 -2.453125 1.25 -3.796875q1.265625 -1.34375 3.265625 -1.34375q1.9375 0 3.15625 1.328125q1.234375 1.3125 1.234375 3.703125q0 0.15625 0 0.4375l-7.21875 0q0.09375 1.59375 0.90625 2.453125q0.8125 0.84375 2.015625 0.84375q0.90625 0 1.546875 -0.46875q0.640625 -0.484375 1.015625 -1.515625zm-5.390625 -2.65625l5.40625 0q-0.109375 -1.21875 -0.625 -1.828125q-0.78125 -0.953125 -2.03125 -0.953125q-1.125 0 -1.90625 0.765625q-0.765625 0.75 -0.84375 2.015625zm9.125702 5.765625l0 -9.671875l1.46875 0l0 1.46875q0.5625 -1.03125 1.03125 -1.359375q0.484375 -0.328125 1.0625 -0.328125q0.828125 0 1.6875 0.53125l-0.5625 1.515625q-0.609375 -0.359375 -1.203125 -0.359375q-0.546875 0 -0.96875 0.328125q-0.421875 0.328125 -0.609375 0.890625q-0.28125 0.875 -0.28125 1.921875l0 5.0625l-1.625 0zm7.306427 3.921875l-1.1875 0q2.734375 -4.375 2.734375 -8.75q0 -1.71875 -0.390625 -3.390625q-0.3125 -1.375 -0.875 -2.625q-0.359375 -0.828125 -1.46875 -2.734375l1.1875 0q1.703125 2.28125 2.53125 4.59375q0.6875 1.984375 0.6875 4.140625q0 2.46875 -0.9375 4.765625q-0.9375 2.296875 -2.28125 4.0zm10.317871 -3.921875l0 -9.671875l1.46875 0l0 1.359375q0.453125 -0.71875 1.203125 -1.140625q0.765625 -0.4375 1.71875 -0.4375q1.078125 0 1.765625 0.453125q0.6875 0.4375 0.96875 1.234375q1.15625 -1.6875 2.984375 -1.6875q1.453125 0 2.21875 0.796875q0.78125 0.796875 0.78125 2.453125l0 6.640625l-1.640625 0l0 -6.09375q0 -0.984375 -0.15625 -1.40625q-0.15625 -0.4375 -0.578125 -0.703125q-0.421875 -0.265625 -0.984375 -0.265625q-1.015625 0 -1.6875 0.6875q-0.671875 0.671875 -0.671875 2.15625l0 5.625l-1.640625 0l0 -6.28125q0 -1.09375 -0.40625 -1.640625q-0.40625 -0.546875 -1.3125 -0.546875q-0.6875 0 -1.28125 0.359375q-0.59375 0.359375 -0.859375 1.0625q-0.25 0.703125 -0.25 2.03125l0 5.015625l-1.640625 0zm22.165802 -3.109375l1.6875 0.203125q-0.40625 1.484375 -1.484375 2.3125q-1.078125 0.8125 -2.765625 0.8125q-2.125 0 -3.375 -1.296875q-1.234375 -1.3125 -1.234375 -3.671875q0 -2.453125 1.25 -3.796875q1.265625 -1.34375 3.265625 -1.34375q1.9375 0 3.15625 1.328125q1.234375 1.3125 1.234375 3.703125q0 0.15625 0 0.4375l-7.21875 0q0.09375 1.59375 0.90625 2.453125q0.8125 0.84375 2.015625 0.84375q0.90625 0 1.546875 -0.46875q0.640625 -0.484375 1.015625 -1.515625zm-5.390625 -2.65625l5.40625 0q-0.109375 -1.21875 -0.625 -1.828125q-0.78125 -0.953125 -2.03125 -0.953125q-1.125 0 -1.90625 0.765625q-0.765625 0.75 -0.84375 2.015625zm9.141327 5.765625l0 -9.671875l1.46875 0l0 1.359375q0.453125 -0.71875 1.203125 -1.140625q0.765625 -0.4375 1.71875 -0.4375q1.078125 0 1.765625 0.453125q0.6875 0.4375 0.96875 1.234375q1.15625 -1.6875 2.984375 -1.6875q1.453125 0 2.21875 0.796875q0.78125 0.796875 0.78125 2.453125l0 6.640625l-1.640625 0l0 -6.09375q0 -0.984375 -0.15625 -1.40625q-0.15625 -0.4375 -0.578125 -0.703125q-0.421875 -0.265625 -0.984375 -0.265625q-1.015625 0 -1.6875 0.6875q-0.671875 0.671875 -0.671875 2.15625l0 5.625l-1.640625 0l0 -6.28125q0 -1.09375 -0.40625 -1.640625q-0.40625 -0.546875 -1.3125 -0.546875q-0.6875 0 -1.28125 0.359375q-0.59375 0.359375 -0.859375 1.0625q-0.25 0.703125 -0.25 2.03125l0 5.015625l-1.640625 0zm14.931427 -4.84375q0 -2.6875 1.484375 -3.96875q1.25 -1.078125 3.046875 -1.078125q2.0 0 3.265625 1.3125q1.265625 1.296875 1.265625 3.609375q0 1.859375 -0.5625 2.9375q-0.5625 1.0625 -1.640625 1.65625q-1.0625 0.59375 -2.328125 0.59375q-2.03125 0 -3.28125 -1.296875q-1.25 -1.3125 -1.25 -3.765625zm1.6875 0q0 1.859375 0.796875 2.796875q0.8125 0.921875 2.046875 0.921875q1.21875 0 2.03125 -0.921875q0.8125 -0.9375 0.8125 -2.84375q0 -1.796875 -0.8125 -2.71875q-0.8125 -0.921875 -2.03125 -0.921875q-1.234375 0 -2.046875 0.921875q-0.796875 0.90625 -0.796875 2.765625zm9.281952 4.84375l0 -9.671875l1.46875 0l0 1.46875q0.5625 -1.03125 1.03125 -1.359375q0.484375 -0.328125 1.0625 -0.328125q0.828125 0 1.6875 0.53125l-0.5625 1.515625q-0.609375 -0.359375 -1.203125 -0.359375q-0.546875 0 -0.96875 0.328125q-0.421875 0.328125 -0.609375 0.890625q-0.28125 0.875 -0.28125 1.921875l0 5.0625l-1.625 0zm6.150177 3.71875l-0.1875 -1.53125q0.546875 0.140625 0.9375 0.140625q0.546875 0 0.875 -0.1875q0.328125 -0.171875 0.546875 -0.5q0.15625 -0.25 0.5 -1.21875q0.046875 -0.140625 0.140625 -0.40625l-3.671875 -9.6875l1.765625 0l2.015625 5.59375q0.390625 1.078125 0.703125 2.25q0.28125 -1.125 0.671875 -2.203125l2.078125 -5.640625l1.640625 0l-3.6875 9.828125q-0.59375 1.609375 -0.921875 2.203125q-0.4375 0.8125 -1.0 1.1875q-0.5625 0.375 -1.34375 0.375q-0.484375 0 -1.0625 -0.203125zm14.542694 -3.71875l0 -13.359375l1.640625 0l0 13.359375l-1.640625 0zm3.582306 -4.84375q0 -2.6875 1.484375 -3.96875q1.25 -1.078125 3.046875 -1.078125q2.0 0 3.265625 1.3125q1.265625 1.296875 1.265625 3.609375q0 1.859375 -0.5625 2.9375q-0.5625 1.0625 -1.640625 1.65625q-1.0625 0.59375 -2.328125 0.59375q-2.03125 0 -3.28125 -1.296875q-1.25 -1.3125 -1.25 -3.765625zm1.6875 0q0 1.859375 0.796875 2.796875q0.8125 0.921875 2.046875 0.921875q1.21875 0 2.03125 -0.921875q0.8125 -0.9375 0.8125 -2.84375q0 -1.796875 -0.8125 -2.71875q-0.8125 -0.921875 -2.03125 -0.921875q-1.234375 0 -2.046875 0.921875q-0.796875 0.90625 -0.796875 2.765625zm15.610107 1.296875l1.609375 0.21875q-0.265625 1.65625 -1.359375 2.609375q-1.078125 0.9375 -2.671875 0.9375q-1.984375 0 -3.1875 -1.296875q-1.203125 -1.296875 -1.203125 -3.71875q0 -1.578125 0.515625 -2.75q0.515625 -1.171875 1.578125 -1.75q1.0625 -0.59375 2.3125 -0.59375q1.578125 0 2.578125 0.796875q1.0 0.796875 1.28125 2.265625l-1.59375 0.234375q-0.234375 -0.96875 -0.8125 -1.453125q-0.578125 -0.5 -1.390625 -0.5q-1.234375 0 -2.015625 0.890625q-0.78125 0.890625 -0.78125 2.8125q0 1.953125 0.75 2.84375q0.75 0.875 1.953125 0.875q0.96875 0 1.609375 -0.59375q0.65625 -0.59375 0.828125 -1.828125zm9.328125 2.359375q-0.921875 0.765625 -1.765625 1.09375q-0.828125 0.3125 -1.796875 0.3125q-1.59375 0 -2.453125 -0.78125q-0.859375 -0.78125 -0.859375 -1.984375q0 -0.71875 0.328125 -1.296875q0.328125 -0.59375 0.84375 -0.9375q0.53125 -0.359375 1.1875 -0.546875q0.46875 -0.125 1.453125 -0.25q1.984375 -0.234375 2.921875 -0.5625q0.015625 -0.34375 0.015625 -0.421875q0 -1.0 -0.46875 -1.421875q-0.625 -0.546875 -1.875 -0.546875q-1.15625 0 -1.703125 0.40625q-0.546875 0.40625 -0.8125 1.421875l-1.609375 -0.21875q0.21875 -1.015625 0.71875 -1.640625q0.5 -0.640625 1.453125 -0.984375q0.953125 -0.34375 2.1875 -0.34375q1.25 0 2.015625 0.296875q0.78125 0.28125 1.140625 0.734375q0.375 0.4375 0.515625 1.109375q0.078125 0.421875 0.078125 1.515625l0 2.1875q0 2.28125 0.109375 2.890625q0.109375 0.59375 0.40625 1.15625l-1.703125 0q-0.265625 -0.515625 -0.328125 -1.1875zm-0.140625 -3.671875q-0.890625 0.375 -2.671875 0.625q-1.015625 0.140625 -1.4375 0.328125q-0.421875 0.1875 -0.65625 0.53125q-0.21875 0.34375 -0.21875 0.78125q0 0.65625 0.5 1.09375q0.5 0.4375 1.453125 0.4375q0.9375 0 1.671875 -0.40625q0.75 -0.421875 1.09375 -1.140625q0.265625 -0.5625 0.265625 -1.640625l0 -0.609375zm7.781952 3.390625l0.234375 1.453125q-0.6875 0.140625 -1.234375 0.140625q-0.890625 0 -1.390625 -0.28125q-0.484375 -0.28125 -0.6875 -0.734375q-0.203125 -0.46875 -0.203125 -1.9375l0 -5.578125l-1.203125 0l0 -1.265625l1.203125 0l0 -2.390625l1.625 -0.984375l0 3.375l1.65625 0l0 1.265625l-1.65625 0l0 5.671875q0 0.6875 0.078125 0.890625q0.09375 0.203125 0.28125 0.328125q0.203125 0.109375 0.578125 0.109375q0.265625 0 0.71875 -0.0625zm1.6051941 -10.0l0 -1.890625l1.640625 0l0 1.890625l-1.640625 0zm0 11.46875l0 -9.671875l1.640625 0l0 9.671875l-1.640625 0zm3.5354614 -4.84375q0 -2.6875 1.484375 -3.96875q1.25 -1.078125 3.046875 -1.078125q2.0 0 3.265625 1.3125q1.265625 1.296875 1.265625 3.609375q0 1.859375 -0.5625 2.9375q-0.5625 1.0625 -1.640625 1.65625q-1.0625 0.59375 -2.328125 0.59375q-2.03125 0 -3.28125 -1.296875q-1.25 -1.3125 -1.25 -3.765625zm1.6875 0q0 1.859375 0.796875 2.796875q0.8125 0.921875 2.046875 0.921875q1.21875 0 2.03125 -0.921875q0.8125 -0.9375 0.8125 -2.84375q0 -1.796875 -0.8125 -2.71875q-0.8125 -0.921875 -2.03125 -0.921875q-1.234375 0 -2.046875 0.921875q-0.796875 0.90625 -0.796875 2.765625zm9.297607 4.84375l0 -9.671875l1.46875 0l0 1.375q1.0625 -1.59375 3.078125 -1.59375q0.875 0 1.609375 0.3125q0.734375 0.3125 1.09375 0.828125q0.375 0.5 0.515625 1.203125q0.09375 0.453125 0.09375 1.59375l0 5.953125l-1.640625 0l0 -5.890625q0 -1.0 -0.203125 -1.484375q-0.1875 -0.5 -0.671875 -0.796875q-0.484375 -0.296875 -1.140625 -0.296875q-1.046875 0 -1.8125 0.671875q-0.75 0.65625 -0.75 2.515625l0 5.28125l-1.640625 0zm9.719421 -2.890625l1.625 -0.25q0.125 0.96875 0.75 1.5q0.625 0.515625 1.75 0.515625q1.125 0 1.671875 -0.453125q0.546875 -0.46875 0.546875 -1.09375q0 -0.546875 -0.484375 -0.875q-0.328125 -0.21875 -1.671875 -0.546875q-1.8125 -0.46875 -2.515625 -0.796875q-0.6875 -0.328125 -1.046875 -0.90625q-0.359375 -0.59375 -0.359375 -1.3125q0 -0.640625 0.296875 -1.1875q0.296875 -0.5625 0.8125 -0.921875q0.375 -0.28125 1.03125 -0.46875q0.671875 -0.203125 1.421875 -0.203125q1.140625 0 2.0 0.328125q0.859375 0.328125 1.265625 0.890625q0.421875 0.5625 0.578125 1.5l-1.609375 0.21875q-0.109375 -0.75 -0.640625 -1.171875q-0.515625 -0.421875 -1.46875 -0.421875q-1.140625 0 -1.625 0.375q-0.46875 0.375 -0.46875 0.875q0 0.3125 0.1875 0.578125q0.203125 0.265625 0.640625 0.4375q0.234375 0.09375 1.4375 0.421875q1.75 0.453125 2.4375 0.75q0.6875 0.296875 1.078125 0.859375q0.390625 0.5625 0.390625 1.40625q0 0.828125 -0.484375 1.546875q-0.46875 0.71875 -1.375 1.125q-0.90625 0.390625 -2.046875 0.390625q-1.875 0 -2.875 -0.78125q-0.984375 -0.78125 -1.25 -2.328125z" fill-rule="nonzero"/><path fill="#000000" fill-opacity="0.0" d="m513.979 12.606299l136.12598 0l0 55.338585l-136.12598 0z" fill-rule="evenodd"/><path fill="#0000ff" d="m544.38965 43.11505q-1.171875 0.984375 -2.265625 1.40625q-1.078125 0.40625 -2.3125 0.40625q-2.046875 0 -3.15625 -1.0q-1.09375 -1.0 -1.09375 -2.5625q0 -0.921875 0.40625 -1.671875q0.421875 -0.75 1.09375 -1.203125q0.671875 -0.46875 1.515625 -0.703125q0.625 -0.15625 1.875 -0.3125q2.5625 -0.3125 3.765625 -0.734375q0.015625 -0.421875 0.015625 -0.546875q0 -1.28125 -0.609375 -1.8125q-0.796875 -0.71875 -2.390625 -0.71875q-1.5 0 -2.203125 0.53125q-0.703125 0.515625 -1.046875 1.84375l-2.0625 -0.28125q0.28125 -1.328125 0.921875 -2.140625q0.640625 -0.8125 1.859375 -1.25q1.21875 -0.4531269 2.828125 -0.4531269q1.59375 0 2.59375 0.3750019q1.0 0.375 1.46875 0.953125q0.46875 0.5625 0.65625 1.4375q0.09375 0.53125 0.09375 1.9375l0 2.8125q0 2.9375 0.140625 3.71875q0.140625 0.78125 0.53125 1.5l-2.203125 0q-0.328125 -0.65625 -0.421875 -1.53125zm-0.171875 -4.71875q-1.15625 0.46875 -3.453125 0.796875q-1.296875 0.1875 -1.84375 0.421875q-0.53125 0.234375 -0.828125 0.6875q-0.28125 0.453125 -0.28125 1.0q0 0.84375 0.625 1.40625q0.640625 0.5625 1.875 0.5625q1.21875 0 2.171875 -0.53125q0.953125 -0.53125 1.390625 -1.453125q0.34375 -0.71875 0.34375 -2.109375l0 -0.78125zm5.3789062 6.25l0 -12.453125l1.890625 0l0 1.890625q0.734375 -1.328125 1.34375 -1.75q0.625 -0.4218769 1.359375 -0.4218769q1.0625 0 2.171875 0.6875019l-0.734375 1.953125q-0.765625 -0.453125 -1.546875 -0.453125q-0.6875 0 -1.25 0.421875q-0.546875 0.40625 -0.78125 1.140625q-0.34375 1.125 -0.34375 2.46875l0 6.515625l-2.109375 0zm7.9921875 0l0 -12.453125l1.890625 0l0 1.890625q0.734375 -1.328125 1.34375 -1.75q0.625 -0.4218769 1.359375 -0.4218769q1.0625 0 2.171875 0.6875019l-0.734375 1.953125q-0.765625 -0.453125 -1.546875 -0.453125q-0.6875 0 -1.25 0.421875q-0.546875 0.40625 -0.78125 1.140625q-0.34375 1.125 -0.34375 2.46875l0 6.515625l-2.109375 0zm16.132812 -1.53125q-1.171875 0.984375 -2.265625 1.40625q-1.078125 0.40625 -2.3125 0.40625q-2.046875 0 -3.15625 -1.0q-1.09375 -1.0 -1.09375 -2.5625q0 -0.921875 0.40625 -1.671875q0.421875 -0.75 1.09375 -1.203125q0.671875 -0.46875 1.515625 -0.703125q0.625 -0.15625 1.875 -0.3125q2.5625 -0.3125 3.765625 -0.734375q0.015625 -0.421875 0.015625 -0.546875q0 -1.28125 -0.609375 -1.8125q-0.796875 -0.71875 -2.390625 -0.71875q-1.5 0 -2.203125 0.53125q-0.703125 0.515625 -1.046875 1.84375l-2.0625 -0.28125q0.28125 -1.328125 0.921875 -2.140625q0.640625 -0.8125 1.859375 -1.25q1.21875 -0.4531269 2.828125 -0.4531269q1.59375 0 2.59375 0.3750019q1.0 0.375 1.46875 0.953125q0.46875 0.5625 0.65625 1.4375q0.09375 0.53125 0.09375 1.9375l0 2.8125q0 2.9375 0.140625 3.71875q0.140625 0.78125 0.53125 1.5l-2.203125 0q-0.328125 -0.65625 -0.421875 -1.53125zm-0.171875 -4.71875q-1.15625 0.46875 -3.453125 0.796875q-1.296875 0.1875 -1.84375 0.421875q-0.53125 0.234375 -0.828125 0.6875q-0.28125 0.453125 -0.28125 1.0q0 0.84375 0.625 1.40625q0.640625 0.5625 1.875 0.5625q1.21875 0 2.171875 -0.53125q0.953125 -0.53125 1.390625 -1.453125q0.34375 -0.71875 0.34375 -2.109375l0 -0.78125zm5.3007812 11.046875l-0.234375 -1.984375q0.703125 0.1875 1.21875 0.1875q0.703125 0 1.125 -0.234375q0.421875 -0.234375 0.6875 -0.65625q0.203125 -0.3125 0.640625 -1.5625q0.0625 -0.1875 0.1875 -0.515625l-4.71875 -12.484375l2.265625 0l2.59375 7.21875q0.5 1.359375 0.90625 2.875q0.359375 -1.453125 0.859375 -2.828125l2.671875 -7.265625l2.109375 0l-4.734375 12.671875q-0.765625 2.046875 -1.1875 2.8125q-0.5625 1.046875 -1.296875 1.53125q-0.71875 0.484375 -1.734375 0.484375q-0.609375 0 -1.359375 -0.25zm19.453125 -4.796875l-2.109375 0l0 -13.437502q-0.75 0.71875 -2.0 1.4531269q-1.234375 0.71875 -2.21875 1.078125l0 -2.031252q1.78125 -0.828125 3.09375 -2.015625q1.328125 -1.1875 1.875 -2.296875l1.359375 0l0 17.250002zm6.0351562 4.765625l0 -21.953127l4.65625 0l0 1.75l-2.546875 0l0 18.468752l2.546875 0l0 1.734375l-4.65625 0zm17.121094 -6.796875l0 2.03125l-11.34375 0q-0.03125 -0.765625 0.234375 -1.46875q0.4375 -1.15625 1.390625 -2.28125q0.953125 -1.125 2.765625 -2.609375q2.796875 -2.296875 3.78125 -3.625q0.984375 -1.34375 0.984375 -2.546875q0 -1.2500019 -0.90625 -2.109377q-0.890625 -0.859375 -2.328125 -0.859375q-1.515625 0 -2.4375 0.921875q-0.90625 0.90625 -0.921875 2.515627l-2.171875 -0.21875q0.21875 -2.421877 1.671875 -3.687502q1.453125 -1.28125 3.90625 -1.28125q2.46875 0 3.90625 1.375q1.453125 1.359375 1.453125 3.390627q0 1.03125 -0.421875 2.03125q-0.421875 1.0 -1.40625 2.109375q-0.96875 1.09375 -3.25 3.015625q-1.890625 1.59375 -2.4375 2.15625q-0.53125 0.5625 -0.890625 1.140625l8.421875 0zm6.3789062 6.796875l-4.65625 0l0 -1.734375l2.546875 0l0 -18.468752l-2.546875 0l0 -1.75l4.65625 0l0 21.953127z" fill-rule="nonzero"/></g></svg>