<svg xmlns="http://www.w3.org/2000/svg" xmlns:xlink="http://www.w3.org/1999/xlink" xmlns:lucid="lucid" width="1300" height="684"><g transform="translate(-80 -20)" lucid:page-tab-id="0_0"><path d="M340 360h240v60H340z" fill="none"/><use xlink:href="#a" transform="matrix(1,0,0,1,340,360) translate(77.74074074074073 36.22222222222222)"/><path d="M100 431h300v242H100z" stroke="#000" stroke-width="2" fill="#fff"/><path d="M100 468.6h300M100 570.9h300" stroke="#000" stroke-width="2" fill="none"/><use xlink:href="#b" transform="matrix(1,0,0,1,108,439) translate(122.55 14.6)"/><use xlink:href="#c" transform="matrix(1,0,0,1,112,476.6) translate(0 25.5)"/><use xlink:href="#d" transform="matrix(1,0,0,1,112,476.6) translate(10.95 25.5)"/><use xlink:href="#e" transform="matrix(1,0,0,1,112,476.6) translate(56.849999999999994 25.5)"/><use xlink:href="#c" transform="matrix(1,0,0,1,112,476.6) translate(0 47.1)"/><use xlink:href="#f" transform="matrix(1,0,0,1,112,476.6) translate(10.95 47.1)"/><use xlink:href="#e" transform="matrix(1,0,0,1,112,476.6) translate(45.95 47.1)"/><use xlink:href="#c" transform="matrix(1,0,0,1,112,476.6) translate(0 68.7)"/><use xlink:href="#g" transform="matrix(1,0,0,1,112,476.6) translate(10.95 68.7)"/><use xlink:href="#h" transform="matrix(1,0,0,1,112,476.6) translate(73.85 68.7)"/><use xlink:href="#i" transform="matrix(1,0,0,1,112,476.6) translate(142.8 68.7)"/><use xlink:href="#j" transform="matrix(1,0,0,1,112,476.6) translate(158.3 68.7)"/><use xlink:href="#k" transform="matrix(1,0,0,1,112,578.9) translate(0 25.5)"/><use xlink:href="#l" transform="matrix(1,0,0,1,112,578.9) translate(15.5 25.5)"/><use xlink:href="#m" transform="matrix(1,0,0,1,112,578.9) translate(112.25000000000001 25.5)"/><use xlink:href="#n" transform="matrix(1,0,0,1,112,578.9) translate(127.25000000000001 25.5)"/><use xlink:href="#o" transform="matrix(1,0,0,1,112,578.9) translate(179.15 25.5)"/><use xlink:href="#k" transform="matrix(1,0,0,1,112,578.9) translate(0 47.1)"/><use xlink:href="#p" transform="matrix(1,0,0,1,112,578.9) translate(15.5 47.1)"/><use xlink:href="#q" transform="matrix(1,0,0,1,112,578.9) translate(53.45 47.1)"/><use xlink:href="#k" transform="matrix(1,0,0,1,112,578.9) translate(0 68.7)"/><use xlink:href="#r" transform="matrix(1,0,0,1,112,578.9) translate(15.5 68.7)"/><use xlink:href="#s" transform="matrix(1,0,0,1,112,578.9) translate(102.25000000000001 68.7)"/><use xlink:href="#t" transform="matrix(1,0,0,1,112,578.9) translate(177.10000000000002 68.7)"/><path d="M540 420h360v264H540z" stroke="#000" stroke-width="2" fill="#fff"/><path d="M540 457.6h360M540 559.9h360" stroke="#000" stroke-width="2" fill="none"/><use xlink:href="#u" transform="matrix(1,0,0,1,548,428) translate(151.525 14.6)"/><use xlink:href="#c" transform="matrix(1,0,0,1,552,465.6) translate(0 25.5)"/><use xlink:href="#v" transform="matrix(1,0,0,1,552,465.6) translate(10.95 25.5)"/><use xlink:href="#w" transform="matrix(1,0,0,1,552,465.6) translate(64.85000000000001 25.5)"/><use xlink:href="#c" transform="matrix(1,0,0,1,552,465.6) translate(0 47.1)"/><use xlink:href="#x" transform="matrix(1,0,0,1,552,465.6) translate(10.95 47.1)"/><use xlink:href="#y" transform="matrix(1,0,0,1,552,465.6) translate(34.9 47.1)"/><use xlink:href="#c" transform="matrix(1,0,0,1,552,465.6) translate(0 68.7)"/><use xlink:href="#x" transform="matrix(1,0,0,1,552,465.6) translate(10.95 68.7)"/><use xlink:href="#z" transform="matrix(1,0,0,1,552,465.6) translate(34.9 68.7)"/><g><use xlink:href="#k" transform="matrix(1,0,0,1,552,567.9) translate(0 25.19999999999999)"/><use xlink:href="#A" transform="matrix(1,0,0,1,552,567.9) translate(15.5 25.19999999999999)"/><use xlink:href="#B" transform="matrix(1,0,0,1,552,567.9) translate(86.35000000000001 25.19999999999999)"/><use xlink:href="#k" transform="matrix(1,0,0,1,552,567.9) translate(0 46.79999999999999)"/><use xlink:href="#C" transform="matrix(1,0,0,1,552,567.9) translate(15.5 46.79999999999999)"/><use xlink:href="#k" transform="matrix(1,0,0,1,552,567.9) translate(0 68.39999999999999)"/><use xlink:href="#D" transform="matrix(1,0,0,1,552,567.9) translate(15.5 68.39999999999999)"/><use xlink:href="#E" transform="matrix(1,0,0,1,552,567.9) translate(59.400000000000006 68.39999999999999)"/><use xlink:href="#k" transform="matrix(1,0,0,1,552,567.9) translate(0 90)"/><use xlink:href="#F" transform="matrix(1,0,0,1,552,567.9) translate(15.5 90)"/></g><path d="M1000 420h360v156h-360z" stroke="#000" stroke-width="2" fill="#fff"/><path d="M1000 457.6h360m-360 59.1h360" stroke="#000" stroke-width="2" fill="none"/><g><use xlink:href="#G" transform="matrix(1,0,0,1,1008,427.99999999999994) translate(113.29999999999998 14.6)"/></g><g><use xlink:href="#H" transform="matrix(1,0,0,1,1012,465.59999999999997) translate(0 25.6)"/><use xlink:href="#I" transform="matrix(1,0,0,1,1012,465.59999999999997) translate(56.900000000000006 25.6)"/><use xlink:href="#J" transform="matrix(1,0,0,1,1012,465.59999999999997) translate(142.85000000000002 25.6)"/><use xlink:href="#K" transform="matrix(1,0,0,1,1012,465.59999999999997) translate(166.85000000000002 25.6)"/></g><g><use xlink:href="#k" transform="matrix(1,0,0,1,1012,524.6999999999999) translate(0 25.6)"/><use xlink:href="#L" transform="matrix(1,0,0,1,1012,524.6999999999999) translate(15.5 25.6)"/><use xlink:href="#M" transform="matrix(1,0,0,1,1012,524.6999999999999) translate(204.2 25.6)"/></g><path d="M1060 360h240v60h-240z" fill="none"/><g><use xlink:href="#N" transform="matrix(1,0,0,1,1060,360) translate(86.68518518518519 36.22222222222222)"/></g><path d="M429.58 553H419.5v-2h10.08zM538 553h-41.47v-2H538z"/><path d="M539 553h-1.03v-2H539zM418.5 556.64L404.24 552l14.26-4.64z"/><path d="M419.5 558l-18.5-6 18.5-6zm-12.03-6l10.03 3.26v-6.52z"/><g><use xlink:href="#O" transform="matrix(1,0,0,1,510.73333333333323,526.4000000000001) translate(0 14.4)"/></g><g><use xlink:href="#P" transform="matrix(1,0,0,1,404.8999999999999,526.4000000000001) translate(0 14.4)"/></g><g><use xlink:href="#Q" transform="matrix(1,0,0,1,429.5780612244897,541.2) translate(0 14.4)"/></g><path d="M540 100h360v264H540z" stroke="#000" stroke-width="2" fill="#fff"/><path d="M540 137.6h360m-360 59.1h360" stroke="#000" stroke-width="2" fill="none"/><g><use xlink:href="#R" transform="matrix(1,0,0,1,548,108) translate(152.55 14.6)"/></g><g><use xlink:href="#c" transform="matrix(1,0,0,1,552,145.6) translate(0 25.6)"/><use xlink:href="#S" transform="matrix(1,0,0,1,552,145.6) translate(10.95 25.6)"/><use xlink:href="#T" transform="matrix(1,0,0,1,552,145.6) translate(56.900000000000006 25.6)"/></g><g><use xlink:href="#k" transform="matrix(1,0,0,1,552,204.7) translate(0 25.6)"/><use xlink:href="#U" transform="matrix(1,0,0,1,552,204.7) translate(15.5 25.6)"/><use xlink:href="#k" transform="matrix(1,0,0,1,552,204.7) translate(0 47.2)"/><use xlink:href="#V" transform="matrix(1,0,0,1,552,204.7) translate(15.5 47.2)"/><use xlink:href="#k" transform="matrix(1,0,0,1,552,204.7) translate(0 68.80000000000001)"/><use xlink:href="#W" transform="matrix(1,0,0,1,552,204.7) translate(15.5 68.80000000000001)"/><use xlink:href="#k" transform="matrix(1,0,0,1,552,204.7) translate(0 90.40000000000002)"/><use xlink:href="#X" transform="matrix(1,0,0,1,552,204.7) translate(15.5 90.40000000000002)"/><use xlink:href="#c" transform="matrix(1,0,0,1,552,204.7) translate(0 112.00000000000001)"/><use xlink:href="#Y" transform="matrix(1,0,0,1,552,204.7) translate(10.95 112.00000000000001)"/><use xlink:href="#Z" transform="matrix(1,0,0,1,552,204.7) translate(214.39999999999995 112.00000000000001)"/><use xlink:href="#c" transform="matrix(1,0,0,1,552,204.7) translate(0 133.6)"/><use xlink:href="#aa" transform="matrix(1,0,0,1,552,204.7) translate(10.95 133.6)"/></g><path d="M721 400.5h-2v-5.7h2zm0-27.3h-2V366h2z"/><path d="M721 366.03h-2V365h2zM720 415.76l-4.64-14.26h9.28z"/><path d="M720 419l-6-18.5h12zm-3.26-16.5l3.26 10.03 3.26-10.03z"/><g><use xlink:href="#ab" transform="matrix(1,0,0,1,690.5,373.19130434782613) translate(0 14.4)"/><use xlink:href="#ac" transform="matrix(1,0,0,1,690.5,373.19130434782613) translate(34 14.4)"/></g><path d="M600 40h240v60H600z" fill="none"/><g><use xlink:href="#ad" transform="matrix(1,0,0,1,600,40) translate(56.22222222222222 36.22222222222222)"/></g><defs><path d="M240 0l2-218c-23 76-54 145-80 218h-23L58-218 59 0H30v-248h44l77 211c21-75 51-140 76-211h43V0h-30" id="ae"/><path d="M100-194c62-1 85 37 85 99 1 63-27 99-86 99S16-35 15-95c0-66 28-99 85-99zM99-20c44 1 53-31 53-75 0-43-8-75-51-75s-53 32-53 75 10 74 51 75" id="af"/><path d="M85-194c31 0 48 13 60 33l-1-100h32l1 261h-30c-2-10 0-23-3-31C134-8 116 4 85 4 32 4 16-35 15-94c0-66 23-100 70-100zm9 24c-40 0-46 34-46 75 0 40 6 74 45 74 42 0 51-32 51-76 0-42-9-74-50-73" id="ag"/><path d="M100-194c63 0 86 42 84 106H49c0 40 14 67 53 68 26 1 43-12 49-29l28 8c-11 28-37 45-77 45C44 4 14-33 15-96c1-61 26-98 85-98zm52 81c6-60-76-77-97-28-3 7-6 17-6 28h103" id="ah"/><path d="M24 0v-261h32V0H24" id="ai"/><g id="a"><use transform="matrix(0.08641975308641976,0,0,0.08641975308641976,0,0)" xlink:href="#ae"/><use transform="matrix(0.08641975308641976,0,0,0.08641975308641976,25.83950617283951,0)" xlink:href="#af"/><use transform="matrix(0.08641975308641976,0,0,0.08641975308641976,43.12345679012346,0)" xlink:href="#ag"/><use transform="matrix(0.08641975308641976,0,0,0.08641975308641976,60.407407407407426,0)" xlink:href="#ah"/><use transform="matrix(0.08641975308641976,0,0,0.08641975308641976,77.69135802469137,0)" xlink:href="#ai"/></g><path d="M212-179c-10-28-35-45-73-45-59 0-87 40-87 99 0 60 29 101 89 101 43 0 62-24 78-52l27 14C228-24 195 4 139 4 59 4 22-46 18-125c-6-104 99-153 187-111 19 9 31 26 39 46" id="aj"/><path d="M141-36C126-15 110 5 73 4 37 3 15-17 15-53c-1-64 63-63 125-63 3-35-9-54-41-54-24 1-41 7-42 31l-33-3c5-37 33-52 76-52 45 0 72 20 72 64v82c-1 20 7 32 28 27v20c-31 9-61-2-59-35zM48-53c0 20 12 33 32 33 41-3 63-29 60-74-43 2-92-5-92 41" id="ak"/><path d="M114-163C36-179 61-72 57 0H25l-1-190h30c1 12-1 29 2 39 6-27 23-49 58-41v29" id="al"/><g id="b"><use transform="matrix(0.05,0,0,0.05,0,0)" xlink:href="#aj"/><use transform="matrix(0.05,0,0,0.05,12.950000000000001,0)" xlink:href="#ak"/><use transform="matrix(0.05,0,0,0.05,22.950000000000003,0)" xlink:href="#al"/><use transform="matrix(0.05,0,0,0.05,28.900000000000002,0)" xlink:href="#ag"/></g><path d="M16-82v-28h88v28H16" id="am"/><use transform="matrix(0.05,0,0,0.05,0,0)" xlink:href="#am" id="c"/><path d="M59-47c-2 24 18 29 38 22v24C64 9 27 4 27-40v-127H5v-23h24l9-43h21v43h35v23H59v120" id="an"/><path d="M210-169c-67 3-38 105-44 169h-31v-121c0-29-5-50-35-48C34-165 62-65 56 0H25l-1-190h30c1 10-1 24 2 32 10-44 99-50 107 0 11-21 27-35 58-36 85-2 47 119 55 194h-31v-121c0-29-5-49-35-48" id="ao"/><path d="M33-154v-36h34v36H33zM33 0v-36h34V0H33" id="ap"/><g id="d"><use transform="matrix(0.05,0,0,0.05,0,0)" xlink:href="#an"/><use transform="matrix(0.05,0,0,0.05,5,0)" xlink:href="#ah"/><use transform="matrix(0.05,0,0,0.05,15,0)" xlink:href="#al"/><use transform="matrix(0.05,0,0,0.05,20.95,0)" xlink:href="#ao"/><use transform="matrix(0.05,0,0,0.05,35.9,0)" xlink:href="#ap"/></g><path d="M185-189c-5-48-123-54-124 2 14 75 158 14 163 119 3 78-121 87-175 55-17-10-28-26-33-46l33-7c5 56 141 63 141-1 0-78-155-14-162-118-5-82 145-84 179-34 5 7 8 16 11 25" id="aq"/><path d="M24-231v-30h32v30H24zM24 0v-190h32V0H24" id="ar"/><path d="M117-194c89-4 53 116 60 194h-32v-121c0-31-8-49-39-48C34-167 62-67 57 0H25l-1-190h30c1 10-1 24 2 32 11-22 29-35 61-36" id="as"/><path d="M177-190C167-65 218 103 67 71c-23-6-38-20-44-43l32-5c15 47 100 32 89-28v-30C133-14 115 1 83 1 29 1 15-40 15-95c0-56 16-97 71-98 29-1 48 16 59 35 1-10 0-23 2-32h30zM94-22c36 0 50-32 50-73 0-42-14-75-50-75-39 0-46 34-46 75s6 73 46 73" id="at"/><g id="e"><use transform="matrix(0.05,0,0,0.05,0,0)" xlink:href="#aq"/><use transform="matrix(0.05,0,0,0.05,12,0)" xlink:href="#an"/><use transform="matrix(0.05,0,0,0.05,17,0)" xlink:href="#al"/><use transform="matrix(0.05,0,0,0.05,22.95,0)" xlink:href="#ar"/><use transform="matrix(0.05,0,0,0.05,26.899999999999995,0)" xlink:href="#as"/><use transform="matrix(0.05,0,0,0.05,36.9,0)" xlink:href="#at"/></g><path d="M101-234c-31-9-42 10-38 44h38v23H63V0H32v-167H5v-23h27c-7-52 17-82 69-68v24" id="au"/><g id="f"><use transform="matrix(0.05,0,0,0.05,0,0)" xlink:href="#ag"/><use transform="matrix(0.05,0,0,0.05,10,0)" xlink:href="#ah"/><use transform="matrix(0.05,0,0,0.05,20,0)" xlink:href="#au"/><use transform="matrix(0.05,0,0,0.05,25,0)" xlink:href="#ap"/></g><path d="M115-194c55 1 70 41 70 98S169 2 115 4C84 4 66-9 55-30l1 105H24l-1-265h31l2 30c10-21 28-34 59-34zm-8 174c40 0 45-34 45-75s-6-73-45-74c-42 0-51 32-51 76 0 43 10 73 51 73" id="av"/><g id="g"><use transform="matrix(0.05,0,0,0.05,0,0)" xlink:href="#au"/><use transform="matrix(0.05,0,0,0.05,5,0)" xlink:href="#ai"/><use transform="matrix(0.05,0,0,0.05,8.95,0)" xlink:href="#ar"/><use transform="matrix(0.05,0,0,0.05,12.899999999999999,0)" xlink:href="#av"/><use transform="matrix(0.05,0,0,0.05,22.9,0)" xlink:href="#av"/><use transform="matrix(0.05,0,0,0.05,32.9,0)" xlink:href="#ah"/><use transform="matrix(0.05,0,0,0.05,42.9,0)" xlink:href="#ag"/><use transform="matrix(0.05,0,0,0.05,52.900000000000006,0)" xlink:href="#ap"/></g><path d="M115-194c53 0 69 39 70 98 0 66-23 100-70 100C84 3 66-7 56-30L54 0H23l1-261h32v101c10-23 28-34 59-34zm-8 174c40 0 45-34 45-75 0-40-5-75-45-74-42 0-51 32-51 76 0 43 10 73 51 73" id="aw"/><g id="h"><use transform="matrix(0.05,0,0,0.05,0,0)" xlink:href="#aw"/><use transform="matrix(0.05,0,0,0.05,10,0)" xlink:href="#af"/><use transform="matrix(0.05,0,0,0.05,20,0)" xlink:href="#af"/><use transform="matrix(0.05,0,0,0.05,30,0)" xlink:href="#ai"/><use transform="matrix(0.05,0,0,0.05,33.95,0)" xlink:href="#ah"/><use transform="matrix(0.05,0,0,0.05,43.95,0)" xlink:href="#ak"/><use transform="matrix(0.05,0,0,0.05,53.95,0)" xlink:href="#as"/></g><path d="M18-150v-26h174v26H18zm0 90v-26h174v26H18" id="ax"/><use transform="matrix(0.05,0,0,0.05,0,0)" xlink:href="#ax" id="i"/><path d="M135-143c-3-34-86-38-87 0 15 53 115 12 119 90S17 21 10-45l28-5c4 36 97 45 98 0-10-56-113-15-118-90-4-57 82-63 122-42 12 7 21 19 24 35" id="ay"/><g id="j"><use transform="matrix(0.05,0,0,0.05,0,0)" xlink:href="#au"/><use transform="matrix(0.05,0,0,0.05,5,0)" xlink:href="#ak"/><use transform="matrix(0.05,0,0,0.05,15,0)" xlink:href="#ai"/><use transform="matrix(0.05,0,0,0.05,18.95,0)" xlink:href="#ay"/><use transform="matrix(0.05,0,0,0.05,27.950000000000003,0)" xlink:href="#ah"/></g><path d="M118-107v75H92v-75H18v-26h74v-75h26v75h74v26h-74" id="az"/><use transform="matrix(0.05,0,0,0.05,0,0)" xlink:href="#az" id="k"/><path d="M87 75C49 33 22-17 22-94c0-76 28-126 65-167h31c-38 41-64 92-64 168S80 34 118 75H87" id="aA"/><g id="l"><use transform="matrix(0.05,0,0,0.05,0,0)" xlink:href="#aj"/><use transform="matrix(0.05,0,0,0.05,12.950000000000001,0)" xlink:href="#ak"/><use transform="matrix(0.05,0,0,0.05,22.950000000000003,0)" xlink:href="#al"/><use transform="matrix(0.05,0,0,0.05,28.900000000000002,0)" xlink:href="#ag"/><use transform="matrix(0.05,0,0,0.05,38.900000000000006,0)" xlink:href="#aA"/><use transform="matrix(0.05,0,0,0.05,44.85000000000001,0)" xlink:href="#aq"/><use transform="matrix(0.05,0,0,0.05,56.85,0)" xlink:href="#an"/><use transform="matrix(0.05,0,0,0.05,61.85,0)" xlink:href="#al"/><use transform="matrix(0.05,0,0,0.05,67.80000000000001,0)" xlink:href="#ar"/><use transform="matrix(0.05,0,0,0.05,71.75000000000001,0)" xlink:href="#as"/><use transform="matrix(0.05,0,0,0.05,81.75000000000001,0)" xlink:href="#at"/></g><path d="M68-38c1 34 0 65-14 84H32c9-13 17-26 17-46H33v-38h35" id="aB"/><g id="m"><use transform="matrix(0.05,0,0,0.05,0,0)" xlink:href="#an"/><use transform="matrix(0.05,0,0,0.05,5,0)" xlink:href="#aB"/></g><g id="n"><use transform="matrix(0.05,0,0,0.05,0,0)" xlink:href="#aq"/><use transform="matrix(0.05,0,0,0.05,12,0)" xlink:href="#an"/><use transform="matrix(0.05,0,0,0.05,17,0)" xlink:href="#al"/><use transform="matrix(0.05,0,0,0.05,22.95,0)" xlink:href="#ar"/><use transform="matrix(0.05,0,0,0.05,26.899999999999995,0)" xlink:href="#as"/><use transform="matrix(0.05,0,0,0.05,36.9,0)" xlink:href="#at"/></g><path d="M33-261c38 41 65 92 65 168S71 34 33 75H2C39 34 66-17 66-93S39-220 2-261h31" id="aC"/><g id="o"><use transform="matrix(0.05,0,0,0.05,0,0)" xlink:href="#ag"/><use transform="matrix(0.05,0,0,0.05,10,0)" xlink:href="#aC"/></g><path d="M108 0H70L1-190h34L89-25l56-165h34" id="aD"/><g id="p"><use transform="matrix(0.05,0,0,0.05,0,0)" xlink:href="#aD"/><use transform="matrix(0.05,0,0,0.05,9,0)" xlink:href="#af"/><use transform="matrix(0.05,0,0,0.05,19,0)" xlink:href="#ar"/><use transform="matrix(0.05,0,0,0.05,22.95,0)" xlink:href="#ag"/></g><g id="q"><use transform="matrix(0.05,0,0,0.05,0,0)" xlink:href="#au"/><use transform="matrix(0.05,0,0,0.05,5,0)" xlink:href="#ai"/><use transform="matrix(0.05,0,0,0.05,8.95,0)" xlink:href="#ar"/><use transform="matrix(0.05,0,0,0.05,12.899999999999999,0)" xlink:href="#av"/><use transform="matrix(0.05,0,0,0.05,22.9,0)" xlink:href="#aA"/><use transform="matrix(0.05,0,0,0.05,28.849999999999994,0)" xlink:href="#aC"/></g><path d="M127-220V0H93v-220H8v-28h204v28h-85" id="aE"/><g id="r"><use transform="matrix(0.05,0,0,0.05,0,0)" xlink:href="#at"/><use transform="matrix(0.05,0,0,0.05,10,0)" xlink:href="#ah"/><use transform="matrix(0.05,0,0,0.05,20,0)" xlink:href="#an"/><use transform="matrix(0.05,0,0,0.05,25,0)" xlink:href="#aE"/><use transform="matrix(0.05,0,0,0.05,33.95,0)" xlink:href="#ah"/><use transform="matrix(0.05,0,0,0.05,43.95,0)" xlink:href="#al"/><use transform="matrix(0.05,0,0,0.05,49.900000000000006,0)" xlink:href="#ao"/><use transform="matrix(0.05,0,0,0.05,64.85000000000001,0)" xlink:href="#aA"/><use transform="matrix(0.05,0,0,0.05,70.80000000000001,0)" xlink:href="#aC"/><use transform="matrix(0.05,0,0,0.05,76.75000000000001,0)" xlink:href="#aB"/></g><path d="M30-248c118-7 216 8 213 122C240-48 200 0 122 0H30v-248zM63-27c89 8 146-16 146-99s-60-101-146-95v194" id="aF"/><g id="s"><use transform="matrix(0.05,0,0,0.05,0,0)" xlink:href="#at"/><use transform="matrix(0.05,0,0,0.05,10,0)" xlink:href="#ah"/><use transform="matrix(0.05,0,0,0.05,20,0)" xlink:href="#an"/><use transform="matrix(0.05,0,0,0.05,25,0)" xlink:href="#aF"/><use transform="matrix(0.05,0,0,0.05,37.95,0)" xlink:href="#ah"/><use transform="matrix(0.05,0,0,0.05,47.95,0)" xlink:href="#au"/><use transform="matrix(0.05,0,0,0.05,52.95,0)" xlink:href="#aA"/><use transform="matrix(0.05,0,0,0.05,58.900000000000006,0)" xlink:href="#aC"/><use transform="matrix(0.05,0,0,0.05,64.85000000000001,0)" xlink:href="#aB"/></g><path d="M63-220v92h138v28H63V0H30v-248h175v28H63" id="aG"/><g id="t"><use transform="matrix(0.05,0,0,0.05,0,0)" xlink:href="#ar"/><use transform="matrix(0.05,0,0,0.05,3.95,0)" xlink:href="#ay"/><use transform="matrix(0.05,0,0,0.05,12.949999999999998,0)" xlink:href="#aG"/><use transform="matrix(0.05,0,0,0.05,23.9,0)" xlink:href="#ai"/><use transform="matrix(0.05,0,0,0.05,27.849999999999994,0)" xlink:href="#ar"/><use transform="matrix(0.05,0,0,0.05,31.799999999999997,0)" xlink:href="#av"/><use transform="matrix(0.05,0,0,0.05,41.8,0)" xlink:href="#av"/><use transform="matrix(0.05,0,0,0.05,51.79999999999999,0)" xlink:href="#ah"/><use transform="matrix(0.05,0,0,0.05,61.79999999999999,0)" xlink:href="#ag"/><use transform="matrix(0.05,0,0,0.05,71.8,0)" xlink:href="#aA"/><use transform="matrix(0.05,0,0,0.05,77.75,0)" xlink:href="#aC"/></g><path d="M96-169c-40 0-48 33-48 73s9 75 48 75c24 0 41-14 43-38l32 2c-6 37-31 61-74 61-59 0-76-41-82-99-10-93 101-131 147-64 4 7 5 14 7 22l-32 3c-4-21-16-35-41-35" id="aH"/><path d="M143 0L79-87 56-68V0H24v-261h32v163l83-92h37l-77 82L181 0h-38" id="aI"/><g id="u"><use transform="matrix(0.05,0,0,0.05,0,0)" xlink:href="#aF"/><use transform="matrix(0.05,0,0,0.05,12.950000000000001,0)" xlink:href="#ah"/><use transform="matrix(0.05,0,0,0.05,22.950000000000003,0)" xlink:href="#aH"/><use transform="matrix(0.05,0,0,0.05,31.950000000000003,0)" xlink:href="#aI"/></g><path d="M26 75v-336h71v23H56V52h41v23H26" id="aJ"/><path d="M3 75V52h41v-290H3v-23h71V75H3" id="aK"/><g id="v"><use transform="matrix(0.05,0,0,0.05,0,0)" xlink:href="#aj"/><use transform="matrix(0.05,0,0,0.05,12.950000000000001,0)" xlink:href="#ak"/><use transform="matrix(0.05,0,0,0.05,22.950000000000003,0)" xlink:href="#al"/><use transform="matrix(0.05,0,0,0.05,28.900000000000002,0)" xlink:href="#ag"/><use transform="matrix(0.05,0,0,0.05,38.900000000000006,0)" xlink:href="#aJ"/><use transform="matrix(0.05,0,0,0.05,43.900000000000006,0)" xlink:href="#aK"/></g><g id="w"><use transform="matrix(0.05,0,0,0.05,0,0)" xlink:href="#aH"/><use transform="matrix(0.05,0,0,0.05,9,0)" xlink:href="#ak"/><use transform="matrix(0.05,0,0,0.05,19,0)" xlink:href="#al"/><use transform="matrix(0.05,0,0,0.05,24.95,0)" xlink:href="#ag"/><use transform="matrix(0.05,0,0,0.05,34.95,0)" xlink:href="#ay"/></g><g id="x"><use transform="matrix(0.05,0,0,0.05,0,0)" xlink:href="#ar"/><use transform="matrix(0.05,0,0,0.05,3.95,0)" xlink:href="#as"/><use transform="matrix(0.05,0,0,0.05,13.949999999999998,0)" xlink:href="#an"/></g><path d="M33 0v-248h34V0H33" id="aL"/><path d="M141 0L90-78 38 0H4l68-98-65-92h35l48 74 47-74h35l-64 92 68 98h-35" id="aM"/><g id="y"><use transform="matrix(0.05,0,0,0.05,0,0)" xlink:href="#an"/><use transform="matrix(0.05,0,0,0.05,5,0)" xlink:href="#af"/><use transform="matrix(0.05,0,0,0.05,15,0)" xlink:href="#av"/><use transform="matrix(0.05,0,0,0.05,25,0)" xlink:href="#aL"/><use transform="matrix(0.05,0,0,0.05,30,0)" xlink:href="#as"/><use transform="matrix(0.05,0,0,0.05,40,0)" xlink:href="#ag"/><use transform="matrix(0.05,0,0,0.05,50,0)" xlink:href="#ah"/><use transform="matrix(0.05,0,0,0.05,60,0)" xlink:href="#aM"/></g><path d="M84 4C-5 8 30-112 23-190h32v120c0 31 7 50 39 49 72-2 45-101 50-169h31l1 190h-30c-1-10 1-25-2-33-11 22-28 36-60 37" id="aN"/><g id="z"><use transform="matrix(0.05,0,0,0.05,0,0)" xlink:href="#as"/><use transform="matrix(0.05,0,0,0.05,10,0)" xlink:href="#aN"/><use transform="matrix(0.05,0,0,0.05,20,0)" xlink:href="#ao"/><use transform="matrix(0.05,0,0,0.05,34.95,0)" xlink:href="#aj"/><use transform="matrix(0.05,0,0,0.05,47.900000000000006,0)" xlink:href="#ak"/><use transform="matrix(0.05,0,0,0.05,57.900000000000006,0)" xlink:href="#al"/><use transform="matrix(0.05,0,0,0.05,63.85,0)" xlink:href="#ag"/><use transform="matrix(0.05,0,0,0.05,73.85000000000001,0)" xlink:href="#ay"/></g><g id="A"><use transform="matrix(0.05,0,0,0.05,0,0)" xlink:href="#aF"/><use transform="matrix(0.05,0,0,0.05,12.950000000000001,0)" xlink:href="#ah"/><use transform="matrix(0.05,0,0,0.05,22.950000000000003,0)" xlink:href="#aH"/><use transform="matrix(0.05,0,0,0.05,31.950000000000003,0)" xlink:href="#aI"/><use transform="matrix(0.05,0,0,0.05,40.95,0)" xlink:href="#aA"/><use transform="matrix(0.05,0,0,0.05,46.900000000000006,0)" xlink:href="#ar"/><use transform="matrix(0.05,0,0,0.05,50.85000000000001,0)" xlink:href="#as"/><use transform="matrix(0.05,0,0,0.05,60.85,0)" xlink:href="#an"/></g><path d="M9 0v-24l116-142H16v-24h144v24L44-24h123V0H9" id="aO"/><g id="B"><use transform="matrix(0.05,0,0,0.05,0,0)" xlink:href="#ao"/><use transform="matrix(0.05,0,0,0.05,14.950000000000001,0)" xlink:href="#ak"/><use transform="matrix(0.05,0,0,0.05,24.950000000000003,0)" xlink:href="#aM"/><use transform="matrix(0.05,0,0,0.05,33.95,0)" xlink:href="#aq"/><use transform="matrix(0.05,0,0,0.05,45.95,0)" xlink:href="#ar"/><use transform="matrix(0.05,0,0,0.05,49.900000000000006,0)" xlink:href="#aO"/><use transform="matrix(0.05,0,0,0.05,58.900000000000006,0)" xlink:href="#ah"/><use transform="matrix(0.05,0,0,0.05,68.9,0)" xlink:href="#aC"/></g><g id="C"><use transform="matrix(0.05,0,0,0.05,0,0)" xlink:href="#ak"/><use transform="matrix(0.05,0,0,0.05,10,0)" xlink:href="#ag"/><use transform="matrix(0.05,0,0,0.05,20,0)" xlink:href="#ag"/><use transform="matrix(0.05,0,0,0.05,30,0)" xlink:href="#aj"/><use transform="matrix(0.05,0,0,0.05,42.95,0)" xlink:href="#ak"/><use transform="matrix(0.05,0,0,0.05,52.95,0)" xlink:href="#al"/><use transform="matrix(0.05,0,0,0.05,58.900000000000006,0)" xlink:href="#ag"/><use transform="matrix(0.05,0,0,0.05,68.9,0)" xlink:href="#aA"/><use transform="matrix(0.05,0,0,0.05,74.85000000000001,0)" xlink:href="#aj"/><use transform="matrix(0.05,0,0,0.05,87.80000000000001,0)" xlink:href="#ak"/><use transform="matrix(0.05,0,0,0.05,97.80000000000001,0)" xlink:href="#al"/><use transform="matrix(0.05,0,0,0.05,103.75,0)" xlink:href="#ag"/><use transform="matrix(0.05,0,0,0.05,113.75,0)" xlink:href="#aC"/></g><g id="D"><use transform="matrix(0.05,0,0,0.05,0,0)" xlink:href="#aj"/><use transform="matrix(0.05,0,0,0.05,12.950000000000001,0)" xlink:href="#ak"/><use transform="matrix(0.05,0,0,0.05,22.950000000000003,0)" xlink:href="#al"/><use transform="matrix(0.05,0,0,0.05,28.900000000000002,0)" xlink:href="#ag"/></g><g id="E"><use transform="matrix(0.05,0,0,0.05,0,0)" xlink:href="#at"/><use transform="matrix(0.05,0,0,0.05,10,0)" xlink:href="#ah"/><use transform="matrix(0.05,0,0,0.05,20,0)" xlink:href="#an"/><use transform="matrix(0.05,0,0,0.05,25,0)" xlink:href="#aE"/><use transform="matrix(0.05,0,0,0.05,33.95,0)" xlink:href="#af"/><use transform="matrix(0.05,0,0,0.05,43.95,0)" xlink:href="#av"/><use transform="matrix(0.05,0,0,0.05,53.95,0)" xlink:href="#aj"/><use transform="matrix(0.05,0,0,0.05,66.9,0)" xlink:href="#ak"/><use transform="matrix(0.05,0,0,0.05,76.9,0)" xlink:href="#al"/><use transform="matrix(0.05,0,0,0.05,82.85000000000001,0)" xlink:href="#ag"/></g><path d="M106-169C34-169 62-67 57 0H25v-261h32l-1 103c12-21 28-36 61-36 89 0 53 116 60 194h-32v-121c2-32-8-49-39-48" id="aP"/><g id="F"><use transform="matrix(0.05,0,0,0.05,0,0)" xlink:href="#ay"/><use transform="matrix(0.05,0,0,0.05,9,0)" xlink:href="#aP"/><use transform="matrix(0.05,0,0,0.05,19,0)" xlink:href="#aN"/><use transform="matrix(0.05,0,0,0.05,29,0)" xlink:href="#au"/><use transform="matrix(0.05,0,0,0.05,33.65,0)" xlink:href="#au"/><use transform="matrix(0.05,0,0,0.05,38.65,0)" xlink:href="#ai"/><use transform="matrix(0.05,0,0,0.05,42.6,0)" xlink:href="#ah"/><use transform="matrix(0.05,0,0,0.05,52.6,0)" xlink:href="#aA"/><use transform="matrix(0.05,0,0,0.05,58.550000000000004,0)" xlink:href="#aC"/></g><path d="M137 0h-34L2-248h35l83 218 83-218h36" id="aQ"/><path d="M206 0h-36l-40-164L89 0H53L-1-190h32L70-26l43-164h34l41 164 42-164h31" id="aR"/><g id="G"><use transform="matrix(0.05,0,0,0.05,0,0)" xlink:href="#aG"/><use transform="matrix(0.05,0,0,0.05,10.950000000000001,0)" xlink:href="#ai"/><use transform="matrix(0.05,0,0,0.05,14.9,0)" xlink:href="#ak"/><use transform="matrix(0.05,0,0,0.05,24.900000000000002,0)" xlink:href="#ay"/><use transform="matrix(0.05,0,0,0.05,33.900000000000006,0)" xlink:href="#aP"/><use transform="matrix(0.05,0,0,0.05,43.900000000000006,0)" xlink:href="#aH"/><use transform="matrix(0.05,0,0,0.05,52.900000000000006,0)" xlink:href="#ak"/><use transform="matrix(0.05,0,0,0.05,62.900000000000006,0)" xlink:href="#al"/><use transform="matrix(0.05,0,0,0.05,68.85000000000001,0)" xlink:href="#ag"/><use transform="matrix(0.05,0,0,0.05,78.85000000000001,0)" xlink:href="#aQ"/><use transform="matrix(0.05,0,0,0.05,90.50000000000001,0)" xlink:href="#ar"/><use transform="matrix(0.05,0,0,0.05,94.45000000000002,0)" xlink:href="#ah"/><use transform="matrix(0.05,0,0,0.05,104.45,0)" xlink:href="#aR"/></g><path d="M179-190L93 31C79 59 56 82 12 73V49c39 6 53-20 64-50L1-190h34L92-34l54-156h33" id="aS"/><g id="H"><use transform="matrix(0.05,0,0,0.05,0,0)" xlink:href="#ao"/><use transform="matrix(0.05,0,0,0.05,14.950000000000001,0)" xlink:href="#af"/><use transform="matrix(0.05,0,0,0.05,24.950000000000003,0)" xlink:href="#ay"/><use transform="matrix(0.05,0,0,0.05,33.95,0)" xlink:href="#an"/><use transform="matrix(0.05,0,0,0.05,38.95,0)" xlink:href="#ai"/><use transform="matrix(0.05,0,0,0.05,42.900000000000006,0)" xlink:href="#aS"/></g><g id="I"><use transform="matrix(0.05,0,0,0.05,0,0)" xlink:href="#at"/><use transform="matrix(0.05,0,0,0.05,10,0)" xlink:href="#ah"/><use transform="matrix(0.05,0,0,0.05,20,0)" xlink:href="#as"/><use transform="matrix(0.05,0,0,0.05,30,0)" xlink:href="#ah"/><use transform="matrix(0.05,0,0,0.05,40,0)" xlink:href="#al"/><use transform="matrix(0.05,0,0,0.05,45.95,0)" xlink:href="#ak"/><use transform="matrix(0.05,0,0,0.05,55.95,0)" xlink:href="#an"/><use transform="matrix(0.05,0,0,0.05,60.95,0)" xlink:href="#ah"/><use transform="matrix(0.05,0,0,0.05,70.95,0)" xlink:href="#ag"/></g><g id="J"><use transform="matrix(0.05,0,0,0.05,0,0)" xlink:href="#aw"/><use transform="matrix(0.05,0,0,0.05,10,0)" xlink:href="#aS"/></g><path d="M63-70H37l-4-178h34zM33 0v-35h34V0H33" id="aT"/><g id="K"><use transform="matrix(0.05,0,0,0.05,0,0)" xlink:href="#as"/><use transform="matrix(0.05,0,0,0.05,10,0)" xlink:href="#ah"/><use transform="matrix(0.05,0,0,0.05,20,0)" xlink:href="#an"/><use transform="matrix(0.05,0,0,0.05,25,0)" xlink:href="#aw"/><use transform="matrix(0.05,0,0,0.05,35,0)" xlink:href="#ah"/><use transform="matrix(0.05,0,0,0.05,45,0)" xlink:href="#ak"/><use transform="matrix(0.05,0,0,0.05,55,0)" xlink:href="#as"/><use transform="matrix(0.05,0,0,0.05,65,0)" xlink:href="#ay"/><use transform="matrix(0.05,0,0,0.05,74,0)" xlink:href="#aT"/></g><g id="L"><use transform="matrix(0.05,0,0,0.05,0,0)" xlink:href="#aH"/><use transform="matrix(0.05,0,0,0.05,9,0)" xlink:href="#aP"/><use transform="matrix(0.05,0,0,0.05,19,0)" xlink:href="#ak"/><use transform="matrix(0.05,0,0,0.05,29,0)" xlink:href="#as"/><use transform="matrix(0.05,0,0,0.05,39,0)" xlink:href="#at"/><use transform="matrix(0.05,0,0,0.05,49,0)" xlink:href="#ah"/><use transform="matrix(0.05,0,0,0.05,59,0)" xlink:href="#aj"/><use transform="matrix(0.05,0,0,0.05,71.95,0)" xlink:href="#ak"/><use transform="matrix(0.05,0,0,0.05,81.95,0)" xlink:href="#al"/><use transform="matrix(0.05,0,0,0.05,87.9,0)" xlink:href="#ag"/><use transform="matrix(0.05,0,0,0.05,97.9,0)" xlink:href="#aE"/><use transform="matrix(0.05,0,0,0.05,106.85000000000001,0)" xlink:href="#ah"/><use transform="matrix(0.05,0,0,0.05,116.85000000000001,0)" xlink:href="#aM"/><use transform="matrix(0.05,0,0,0.05,125.85000000000001,0)" xlink:href="#an"/><use transform="matrix(0.05,0,0,0.05,130.85000000000002,0)" xlink:href="#aA"/><use transform="matrix(0.05,0,0,0.05,136.8,0)" xlink:href="#aq"/><use transform="matrix(0.05,0,0,0.05,148.8,0)" xlink:href="#an"/><use transform="matrix(0.05,0,0,0.05,153.8,0)" xlink:href="#al"/><use transform="matrix(0.05,0,0,0.05,159.75,0)" xlink:href="#ar"/><use transform="matrix(0.05,0,0,0.05,163.7,0)" xlink:href="#as"/><use transform="matrix(0.05,0,0,0.05,173.7,0)" xlink:href="#at"/></g><g id="M"><use transform="matrix(0.05,0,0,0.05,0,0)" xlink:href="#an"/><use transform="matrix(0.05,0,0,0.05,5,0)" xlink:href="#ah"/><use transform="matrix(0.05,0,0,0.05,15,0)" xlink:href="#aM"/><use transform="matrix(0.05,0,0,0.05,24,0)" xlink:href="#an"/><use transform="matrix(0.05,0,0,0.05,29,0)" xlink:href="#aC"/></g><g id="N"><use transform="matrix(0.08641975308641976,0,0,0.08641975308641976,0,0)" xlink:href="#aQ"/><use transform="matrix(0.08641975308641976,0,0,0.08641975308641976,20.135802469135804,0)" xlink:href="#ar"/><use transform="matrix(0.08641975308641976,0,0,0.08641975308641976,26.962962962962965,0)" xlink:href="#ah"/><use transform="matrix(0.08641975308641976,0,0,0.08641975308641976,44.24691358024692,0)" xlink:href="#aR"/></g><path d="M27 0v-27h64v-190l-56 39v-29l58-41h29v221h61V0H27" id="aU"/><use transform="matrix(0.05,0,0,0.05,0,0)" xlink:href="#aU" id="O"/><path d="M101-251c68 0 85 55 85 127S166 4 100 4C33 4 14-52 14-124c0-73 17-127 87-127zm-1 229c47 0 54-49 54-102s-4-102-53-102c-51 0-55 48-55 102 0 53 5 102 54 102" id="aV"/><path d="M33 0v-38h34V0H33" id="aW"/><path d="M80-196l47-18 7 23-49 13 32 44-20 13-27-46-27 45-21-12 33-44-49-13 8-23 47 19-2-53h23" id="aX"/><g id="P"><use transform="matrix(0.05,0,0,0.05,0,0)" xlink:href="#aV"/><use transform="matrix(0.05,0,0,0.05,10,0)" xlink:href="#aW"/><use transform="matrix(0.05,0,0,0.05,15,0)" xlink:href="#aW"/><use transform="matrix(0.05,0,0,0.05,20,0)" xlink:href="#aX"/></g><g id="Q"><use transform="matrix(0.05,0,0,0.05,0,0)" xlink:href="#aH"/><use transform="matrix(0.05,0,0,0.05,9,0)" xlink:href="#af"/><use transform="matrix(0.05,0,0,0.05,19,0)" xlink:href="#as"/><use transform="matrix(0.05,0,0,0.05,29,0)" xlink:href="#an"/><use transform="matrix(0.05,0,0,0.05,34,0)" xlink:href="#ak"/><use transform="matrix(0.05,0,0,0.05,44,0)" xlink:href="#ar"/><use transform="matrix(0.05,0,0,0.05,47.95,0)" xlink:href="#as"/><use transform="matrix(0.05,0,0,0.05,57.95,0)" xlink:href="#ay"/></g><g id="R"><use transform="matrix(0.05,0,0,0.05,0,0)" xlink:href="#ae"/><use transform="matrix(0.05,0,0,0.05,14.950000000000001,0)" xlink:href="#ak"/><use transform="matrix(0.05,0,0,0.05,24.950000000000003,0)" xlink:href="#ar"/><use transform="matrix(0.05,0,0,0.05,28.900000000000002,0)" xlink:href="#as"/></g><g id="S"><use transform="matrix(0.05,0,0,0.05,0,0)" xlink:href="#aF"/><use transform="matrix(0.05,0,0,0.05,12.950000000000001,0)" xlink:href="#ah"/><use transform="matrix(0.05,0,0,0.05,22.950000000000003,0)" xlink:href="#aH"/><use transform="matrix(0.05,0,0,0.05,31.950000000000003,0)" xlink:href="#aI"/></g><use transform="matrix(0.05,0,0,0.05,0,0)" xlink:href="#ag" id="T"/><path d="M160-131c35 5 61 23 61 61C221 17 115-2 30 0v-248c76 3 177-17 177 60 0 33-19 50-47 57zm-97-11c50-1 110 9 110-42 0-47-63-36-110-37v79zm0 115c55-2 124 14 124-45 0-56-70-42-124-44v89" id="aY"/><path d="M30-248c87 1 191-15 191 75 0 78-77 80-158 76V0H30v-248zm33 125c57 0 124 11 124-50 0-59-68-47-124-48v98" id="aZ"/><g id="U"><use transform="matrix(0.05,0,0,0.05,0,0)" xlink:href="#av"/><use transform="matrix(0.05,0,0,0.05,10,0)" xlink:href="#al"/><use transform="matrix(0.05,0,0,0.05,15.949999999999998,0)" xlink:href="#ah"/><use transform="matrix(0.05,0,0,0.05,25.950000000000003,0)" xlink:href="#aD"/><use transform="matrix(0.05,0,0,0.05,34.95,0)" xlink:href="#aY"/><use transform="matrix(0.05,0,0,0.05,46.95,0)" xlink:href="#aN"/><use transform="matrix(0.05,0,0,0.05,56.95,0)" xlink:href="#an"/><use transform="matrix(0.05,0,0,0.05,61.95,0)" xlink:href="#an"/><use transform="matrix(0.05,0,0,0.05,66.95,0)" xlink:href="#af"/><use transform="matrix(0.05,0,0,0.05,76.95,0)" xlink:href="#as"/><use transform="matrix(0.05,0,0,0.05,86.95,0)" xlink:href="#aZ"/><use transform="matrix(0.05,0,0,0.05,98.95,0)" xlink:href="#aN"/><use transform="matrix(0.05,0,0,0.05,108.95,0)" xlink:href="#ay"/><use transform="matrix(0.05,0,0,0.05,117.95,0)" xlink:href="#aP"/><use transform="matrix(0.05,0,0,0.05,127.95,0)" xlink:href="#ah"/><use transform="matrix(0.05,0,0,0.05,137.95,0)" xlink:href="#ag"/><use transform="matrix(0.05,0,0,0.05,147.95,0)" xlink:href="#aA"/><use transform="matrix(0.05,0,0,0.05,153.89999999999998,0)" xlink:href="#aC"/></g><g id="V"><use transform="matrix(0.05,0,0,0.05,0,0)" xlink:href="#as"/><use transform="matrix(0.05,0,0,0.05,10,0)" xlink:href="#ah"/><use transform="matrix(0.05,0,0,0.05,20,0)" xlink:href="#aM"/><use transform="matrix(0.05,0,0,0.05,29,0)" xlink:href="#an"/><use transform="matrix(0.05,0,0,0.05,34,0)" xlink:href="#aY"/><use transform="matrix(0.05,0,0,0.05,46,0)" xlink:href="#aN"/><use transform="matrix(0.05,0,0,0.05,56,0)" xlink:href="#an"/><use transform="matrix(0.05,0,0,0.05,61,0)" xlink:href="#an"/><use transform="matrix(0.05,0,0,0.05,66,0)" xlink:href="#af"/><use transform="matrix(0.05,0,0,0.05,76,0)" xlink:href="#as"/><use transform="matrix(0.05,0,0,0.05,86,0)" xlink:href="#aZ"/><use transform="matrix(0.05,0,0,0.05,98,0)" xlink:href="#aN"/><use transform="matrix(0.05,0,0,0.05,108,0)" xlink:href="#ay"/><use transform="matrix(0.05,0,0,0.05,117,0)" xlink:href="#aP"/><use transform="matrix(0.05,0,0,0.05,127,0)" xlink:href="#ah"/><use transform="matrix(0.05,0,0,0.05,137,0)" xlink:href="#ag"/><use transform="matrix(0.05,0,0,0.05,147,0)" xlink:href="#aA"/><use transform="matrix(0.05,0,0,0.05,152.95,0)" xlink:href="#aC"/></g><g id="W"><use transform="matrix(0.05,0,0,0.05,0,0)" xlink:href="#au"/><use transform="matrix(0.05,0,0,0.05,5,0)" xlink:href="#ai"/><use transform="matrix(0.05,0,0,0.05,8.95,0)" xlink:href="#ar"/><use transform="matrix(0.05,0,0,0.05,12.899999999999999,0)" xlink:href="#av"/><use transform="matrix(0.05,0,0,0.05,22.9,0)" xlink:href="#aY"/><use transform="matrix(0.05,0,0,0.05,34.9,0)" xlink:href="#aN"/><use transform="matrix(0.05,0,0,0.05,44.9,0)" xlink:href="#an"/><use transform="matrix(0.05,0,0,0.05,49.9,0)" xlink:href="#an"/><use transform="matrix(0.05,0,0,0.05,54.900000000000006,0)" xlink:href="#af"/><use transform="matrix(0.05,0,0,0.05,64.9,0)" xlink:href="#as"/><use transform="matrix(0.05,0,0,0.05,74.9,0)" xlink:href="#aZ"/><use transform="matrix(0.05,0,0,0.05,86.9,0)" xlink:href="#aN"/><use transform="matrix(0.05,0,0,0.05,96.9,0)" xlink:href="#ay"/><use transform="matrix(0.05,0,0,0.05,105.9,0)" xlink:href="#aP"/><use transform="matrix(0.05,0,0,0.05,115.9,0)" xlink:href="#ah"/><use transform="matrix(0.05,0,0,0.05,125.9,0)" xlink:href="#ag"/><use transform="matrix(0.05,0,0,0.05,135.9,0)" xlink:href="#aA"/><use transform="matrix(0.05,0,0,0.05,141.85,0)" xlink:href="#aC"/></g><g id="X"><use transform="matrix(0.05,0,0,0.05,0,0)" xlink:href="#af"/><use transform="matrix(0.05,0,0,0.05,10,0)" xlink:href="#av"/><use transform="matrix(0.05,0,0,0.05,20,0)" xlink:href="#ah"/><use transform="matrix(0.05,0,0,0.05,30,0)" xlink:href="#as"/><use transform="matrix(0.05,0,0,0.05,40,0)" xlink:href="#aY"/><use transform="matrix(0.05,0,0,0.05,52,0)" xlink:href="#aN"/><use transform="matrix(0.05,0,0,0.05,62,0)" xlink:href="#an"/><use transform="matrix(0.05,0,0,0.05,67,0)" xlink:href="#an"/><use transform="matrix(0.05,0,0,0.05,72,0)" xlink:href="#af"/><use transform="matrix(0.05,0,0,0.05,82,0)" xlink:href="#as"/><use transform="matrix(0.05,0,0,0.05,92,0)" xlink:href="#aZ"/><use transform="matrix(0.05,0,0,0.05,104,0)" xlink:href="#aN"/><use transform="matrix(0.05,0,0,0.05,114,0)" xlink:href="#ay"/><use transform="matrix(0.05,0,0,0.05,123,0)" xlink:href="#aP"/><use transform="matrix(0.05,0,0,0.05,133,0)" xlink:href="#ah"/><use transform="matrix(0.05,0,0,0.05,143,0)" xlink:href="#ag"/><use transform="matrix(0.05,0,0,0.05,153,0)" xlink:href="#aA"/><use transform="matrix(0.05,0,0,0.05,158.95,0)" xlink:href="#aC"/></g><g id="Y"><use transform="matrix(0.05,0,0,0.05,0,0)" xlink:href="#ai"/><use transform="matrix(0.05,0,0,0.05,3.95,0)" xlink:href="#af"/><use transform="matrix(0.05,0,0,0.05,13.949999999999998,0)" xlink:href="#ak"/><use transform="matrix(0.05,0,0,0.05,23.95,0)" xlink:href="#ag"/><use transform="matrix(0.05,0,0,0.05,33.95,0)" xlink:href="#aF"/><use transform="matrix(0.05,0,0,0.05,46.900000000000006,0)" xlink:href="#ah"/><use transform="matrix(0.05,0,0,0.05,56.900000000000006,0)" xlink:href="#aH"/><use transform="matrix(0.05,0,0,0.05,65.9,0)" xlink:href="#aI"/><use transform="matrix(0.05,0,0,0.05,74.9,0)" xlink:href="#aG"/><use transform="matrix(0.05,0,0,0.05,85.85000000000001,0)" xlink:href="#al"/><use transform="matrix(0.05,0,0,0.05,91.80000000000001,0)" xlink:href="#af"/><use transform="matrix(0.05,0,0,0.05,101.80000000000001,0)" xlink:href="#ao"/><use transform="matrix(0.05,0,0,0.05,116.75,0)" xlink:href="#aG"/><use transform="matrix(0.05,0,0,0.05,127.7,0)" xlink:href="#ar"/><use transform="matrix(0.05,0,0,0.05,131.65,0)" xlink:href="#ai"/><use transform="matrix(0.05,0,0,0.05,135.6,0)" xlink:href="#ah"/><use transform="matrix(0.05,0,0,0.05,145.6,0)" xlink:href="#aA"/><use transform="matrix(0.05,0,0,0.05,151.54999999999998,0)" xlink:href="#aq"/><use transform="matrix(0.05,0,0,0.05,163.54999999999998,0)" xlink:href="#an"/><use transform="matrix(0.05,0,0,0.05,168.54999999999998,0)" xlink:href="#al"/><use transform="matrix(0.05,0,0,0.05,174.49999999999997,0)" xlink:href="#ar"/><use transform="matrix(0.05,0,0,0.05,178.44999999999996,0)" xlink:href="#as"/><use transform="matrix(0.05,0,0,0.05,188.44999999999996,0)" xlink:href="#at"/></g><g id="Z"><use transform="matrix(0.05,0,0,0.05,0,0)" xlink:href="#as"/><use transform="matrix(0.05,0,0,0.05,10,0)" xlink:href="#ak"/><use transform="matrix(0.05,0,0,0.05,20,0)" xlink:href="#ao"/><use transform="matrix(0.05,0,0,0.05,34.95,0)" xlink:href="#ah"/><use transform="matrix(0.05,0,0,0.05,44.95,0)" xlink:href="#aC"/></g><g id="aa"><use transform="matrix(0.05,0,0,0.05,0,0)" xlink:href="#aN"/><use transform="matrix(0.05,0,0,0.05,10,0)" xlink:href="#av"/><use transform="matrix(0.05,0,0,0.05,20,0)" xlink:href="#ag"/><use transform="matrix(0.05,0,0,0.05,30,0)" xlink:href="#ak"/><use transform="matrix(0.05,0,0,0.05,40,0)" xlink:href="#an"/><use transform="matrix(0.05,0,0,0.05,45,0)" xlink:href="#ah"/><use transform="matrix(0.05,0,0,0.05,55,0)" xlink:href="#aG"/><use transform="matrix(0.05,0,0,0.05,65.95,0)" xlink:href="#ai"/><use transform="matrix(0.05,0,0,0.05,69.9,0)" xlink:href="#ak"/><use transform="matrix(0.05,0,0,0.05,79.9,0)" xlink:href="#ay"/><use transform="matrix(0.05,0,0,0.05,88.9,0)" xlink:href="#aP"/><use transform="matrix(0.05,0,0,0.05,98.9,0)" xlink:href="#aH"/><use transform="matrix(0.05,0,0,0.05,107.9,0)" xlink:href="#ak"/><use transform="matrix(0.05,0,0,0.05,117.9,0)" xlink:href="#al"/><use transform="matrix(0.05,0,0,0.05,123.85000000000001,0)" xlink:href="#ag"/><use transform="matrix(0.05,0,0,0.05,133.85000000000002,0)" xlink:href="#aA"/><use transform="matrix(0.05,0,0,0.05,139.8,0)" xlink:href="#aC"/></g><g id="ab"><use transform="matrix(0.05,0,0,0.05,0,0)" xlink:href="#aP"/><use transform="matrix(0.05,0,0,0.05,10,0)" xlink:href="#ak"/><use transform="matrix(0.05,0,0,0.05,20,0)" xlink:href="#ay"/></g><g id="ac"><use transform="matrix(0.05,0,0,0.05,0,0)" xlink:href="#ak"/><use transform="matrix(0.05,0,0,0.05,10,0)" xlink:href="#aW"/><use transform="matrix(0.05,0,0,0.05,15,0)" xlink:href="#aW"/><use transform="matrix(0.05,0,0,0.05,20,0)" xlink:href="#aW"/></g><g id="ad"><use transform="matrix(0.08641975308641976,0,0,0.08641975308641976,0,0)" xlink:href="#aH"/><use transform="matrix(0.08641975308641976,0,0,0.08641975308641976,15.555555555555557,0)" xlink:href="#af"/><use transform="matrix(0.08641975308641976,0,0,0.08641975308641976,32.839506172839506,0)" xlink:href="#as"/><use transform="matrix(0.08641975308641976,0,0,0.08641975308641976,50.123456790123456,0)" xlink:href="#an"/><use transform="matrix(0.08641975308641976,0,0,0.08641975308641976,58.76543209876543,0)" xlink:href="#al"/><use transform="matrix(0.08641975308641976,0,0,0.08641975308641976,69.04938271604938,0)" xlink:href="#af"/><use transform="matrix(0.08641975308641976,0,0,0.08641975308641976,86.33333333333333,0)" xlink:href="#ai"/><use transform="matrix(0.08641975308641976,0,0,0.08641975308641976,93.16049382716048,0)" xlink:href="#ai"/><use transform="matrix(0.08641975308641976,0,0,0.08641975308641976,99.98765432098766,0)" xlink:href="#ah"/><use transform="matrix(0.08641975308641976,0,0,0.08641975308641976,117.27160493827162,0)" xlink:href="#al"/></g></defs></g></svg>